<?xml version="1.0" encoding="utf-8"?>
<!-- Generator: Adobe Illustrator 16.0.0, SVG Export Plug-In . SVG Version: 6.00 Build 0)  -->
<!DOCTYPE svg PUBLIC "-//W3C//DTD SVG 1.1//EN" "http://www.w3.org/Graphics/SVG/1.1/DTD/svg11.dtd">
<svg version="1.1" id="Layer_1" xmlns="http://www.w3.org/2000/svg" xmlns:xlink="http://www.w3.org/1999/xlink" x="0px" y="0px"
	 width="380px" height="72px" viewBox="0 0 380 72" enable-background="new 0 0 380 72" xml:space="preserve">
<path d="M77.567,17.759c-2.39,2.643-3.577,5.579-3.577,8.823c0,3.591,1.535,5.939,4.632,7.034c1.441-3.003,3.311-7.101,5.633-12.28
	c0.587-1.281,0.881-2.402,0.881-3.363c0-1.803-0.921-2.696-2.75-2.696c-0.667,0-1.348,0.133-2.042,0.4
	C79.449,15.997,78.528,16.704,77.567,17.759 M86.07,10.163c1.868-0.066,3.537,0.481,5.006,1.643
	c1.762,1.361,2.656,3.217,2.656,5.566c0,1.441-0.334,2.989-0.988,4.685c-1.588,4.005-2.99,7.448-4.245,10.358
	c0.962-0.587,1.896-1.415,2.817-2.482c0.693-0.774,1.374-1.563,2.028-2.363c0.561-0.627,1.068-0.934,1.549-0.934
	c0.521,0,0.774,0.347,0.774,1.041c0,0.521-0.188,1.027-0.548,1.548c-2.242,3.11-4.952,5.326-8.103,6.607
	c-1.575,3.311-2.362,5.313-2.362,6.007c0,1.068,0.427,1.602,1.268,1.602c0.628,0,1.322-0.333,2.096-0.987
	c2.029-1.775,4.205-4.018,6.555-6.781c1.508-2.977,3.471-6.954,5.899-11.96c0.921-1.896,1.815-3.311,2.696-4.231
	c0.588-0.654,1.522-1.375,2.804-2.149c1.067-0.653,2.256-0.987,3.577-0.987c1.548,0,2.322,0.521,2.322,1.535
	c0,0.334-0.066,0.681-0.227,1.055c-2.35,5.072-5.673,12.587-9.972,22.571c-0.333,0.854-0.493,1.522-0.493,2.043
	c0,0.653,0.267,0.987,0.813,0.987c0.922,0,2.043-0.694,3.364-2.096c1.549-1.655,2.63-2.482,3.257-2.482
	c0.654,0,0.988,0.307,0.988,0.935c0,0.561-0.762,1.655-2.27,3.31c-1.802,1.989-3.791,3.765-5.953,5.34
	c-2.644,1.976-4.739,2.977-6.274,2.977c-2.977,0-4.458-1.615-4.458-4.846c0-1.548,0.388-3.363,1.148-5.446
	c-1.242,1.322-2.523,2.523-3.805,3.631c-3.297,2.856-5.767,4.779-7.382,5.727c-1.321,0.814-2.576,1.215-3.751,1.215
	c-1.067,0-2.028-0.347-2.909-1.041c-1.028-0.854-1.549-1.949-1.549-3.311c0-0.947,0.24-1.962,0.721-3.03
	c0.921-1.936,2.403-5.152,4.459-9.624c-4.339-1.775-6.407-4.752-6.221-8.983c0.187-4.258,1.642-8.022,4.352-11.293
	C78.608,12.059,82.053,10.284,86.07,10.163z"/>
<path d="M154.493,27.183c3.083-0.694,5.526-2.189,7.328-4.458c1.401-1.789,2.096-3.431,2.096-4.899c0-3.19-1.229-4.792-3.697-4.792
	c-1.175,0-2.403,0.774-3.685,2.323c-1.735,2.096-2.482,4.938-2.269,8.529C154.427,26.182,154.493,27.289,154.493,27.183
	 M160.232,9.79c2.123-0.147,3.991,0.36,5.62,1.535c1.989,1.401,2.977,3.511,2.977,6.327c0,2.576-1.415,5.099-4.245,7.568
	c-2.829,2.482-6.14,4.111-9.931,4.872c0.227,5.272-0.254,9.17-1.441,11.666c-3.417,7.195-9.611,10.785-18.567,10.785
	c-4.912,0-8.557-1.241-10.905-3.737c-1.655-1.762-2.483-3.897-2.483-6.394c0-2.016,0.548-3.791,1.655-5.34
	c1.215-1.722,2.856-2.656,4.912-2.803c1.535-0.106,2.844,0.32,3.911,1.309c0.921,0.921,1.388,1.976,1.388,3.149
	c0,0.694-0.187,1.282-0.561,1.763c-0.613,0.733-1.241,1.468-1.868,2.202c-0.44,0.547-0.654,1.215-0.654,1.989
	c0,2.496,1.281,3.737,3.857,3.737c0.334,0,0.681-0.027,1.041-0.054c3.631-0.4,6.047-1.602,7.222-3.577
	c1.321-2.27,1.989-6.861,1.989-13.762v-1.549c-4.512-1.321-7.782-3.537-9.812-6.661c-0.907-1.401-1.375-2.643-1.375-3.737
	c0-0.987,0.428-1.562,1.282-1.708c0.213-0.027,0.44-0.054,0.653-0.054c0.814,0,1.402,0.36,1.763,1.107
	c0.253,0.734,0.521,1.482,0.773,2.256c0.922,2.644,3.258,4.592,7.008,5.834c0.734-5.406,2.656-9.558,5.794-12.494
	C152.918,11.458,156.269,10.03,160.232,9.79z"/>
<path d="M229.337,38.476c0.587,0,1.842-1.002,3.751-3.03c1.135-1.215,1.708-2.483,1.708-3.805c0-0.587-0.227-0.881-0.667-0.881
	c-0.694,0-1.909,1.229-3.751,3.577c-1.201,1.535-1.868,2.656-1.868,3.418C228.496,38.235,228.776,38.476,229.337,38.476
	 M225.572,44.041c-0.187,2.016,0.561,3.03,2.203,3.07c1.027,0.027,2.349-0.387,3.911-1.321c1.441-0.854,2.696-1.855,3.737-2.977
	c1.415-1.495,2.336-2.416,2.83-2.736c0.493-0.307,0.801-0.468,0.907-0.468c0.294,0,0.667,0.134,1.108,0.441
	c0.187,0.133,0.267,0.32,0.267,0.547c0,0.814-1.281,2.416-3.857,4.792c-4.726,4.378-9.063,6.554-13.002,6.554
	c-1.201,0-2.269-0.253-3.189-0.773c-0.935-0.521-1.976-1.188-2.536-2.163c-0.842-1.455-0.975-2.803-0.734-4.338
	c-1.989,1.241-5.112,1.562-7.462,0.614c-2.896,3.764-5.927,5.659-9.063,5.659c-2.963,0-5.006-2.148-5.006-5.593
	c0-1.562,0.574-3.377,1.563-5.713c-4.766,7.528-8.477,11.439-11.961,11.439c-2.202,0-3.604-1.695-3.604-4.298
	c0-2.924,1.976-6.301,4.872-11.561c-4.271,4.673-8.823,10.519-13.629,14.403c-1.361,1.067-2.576,1.602-3.644,1.602
	c-0.814,0-1.655-0.267-2.536-0.827c-1.068-0.694-1.803-1.041-2.203-1.041c-0.561,0-1.348,0.36-2.362,1.107
	c-0.734,0.521-1.348,0.774-1.815,0.774c-0.921,0-1.335-0.628-1.268-1.869c0.106-1.615,1.868-4.392,5.299-8.315
	c2.603-2.977,5.206-5.566,7.822-7.769c-1.148,0.026-1.976-0.188-2.51-0.668s-1.055-0.707-1.575-0.707
	c-0.734,0-1.481,0.413-2.256,1.268c-1.908,2.056-4.458,4.819-7.662,8.316c-0.561,0.587-1.027,0.881-1.441,0.881
	c-0.521,0-0.773-0.32-0.773-0.935c0-0.587,0.307-1.228,0.907-1.896c0.601-0.681,3.083-3.483,7.408-8.409
	c2.029-2.31,3.217-3.631,3.577-3.965c0.948-0.813,2.029-1.268,3.204-1.375c1.027-0.066,2.096,0.2,3.203,0.828
	c1.401,0.841,2.149,1.281,2.256,1.321c0.588,0.146,1.015,0.214,1.269,0.214c0.733,0,1.708-0.494,2.923-1.481
	c0.36-0.294,0.748-0.44,1.148-0.44c0.813,0,1.214,0.347,1.214,1.041c0,0.521-0.293,0.987-0.881,1.441
	c-2.536,1.936-5.125,4.111-7.769,6.487c-2.202,2.028-3.497,3.311-3.884,3.857c-0.388,0.547-0.574,1.028-0.574,1.429
	c0,0.333,0.133,0.627,0.387,0.881c0.521,0.106,1.361,0.387,2.536,0.827c0.147,0.067,0.561,0.334,1.269,0.774
	c0.44,0.294,0.921,0.574,1.321,0.387c4.058-1.962,12.24-12.173,16.472-16.738l6.914-0.454c-6.086,10.839-9.864,16.686-9.864,18.234
	c0,0.453,0.294,0.721,0.761,0.721c1.255,0,3.911-2.376,7.449-7.328l6.887-11.159l7.262-0.454
	c-5.513,10.519-8.703,16.165-8.703,17.979c0,0.842,0.521,1.362,1.509,1.362c1.201,0,2.643-0.534,4.124-1.615
	c-0.627-1.028-0.934-2.043-0.961-3.03c-0.12-4.205,5.06-14.336,9.317-14.71c1.441-0.134,2.202,0.975,2.216,2.856
	c0,2.937-1.575,5.967-4.512,9.784c-0.187,0.334-1.882,2.456-2.096,2.816c2.282,0.562,5.1,0.882,6.354-1.468
	c2.029-3.817,3.898-7.568,7.476-10.278c3.003-2.282,5.699-3.403,8.049-3.403c1.535,0,2.776,0.453,3.697,1.374
	c1.028,1.028,1.535,2.136,1.535,3.311c0,1.762-1.107,3.817-3.311,6.153C233.061,40.544,229.537,42.787,225.572,44.041z"/>
<path d="M295.371,44.535c1.147,0,2.536-0.827,4.164-2.469c1.201-1.295,2.162-2.55,2.884-3.805c1.615-2.923,2.162-5.126,1.642-6.607
	c-0.348-0.975-1.055-1.441-2.162-1.441c-1.482,0-3.538,2.068-6.167,6.193c-2.016,3.203-2.776,5.473-2.323,6.794
	C293.729,44.095,294.383,44.535,295.371,44.535 M237.025,51.09c3.271-6.234,6.021-11.613,8.263-16.139
	c-2.763,3.897-4.498,6.113-5.246,6.661c-0.36,0.294-0.854,0.44-1.481,0.44c-0.881-0.521-1.081-1.121-0.614-1.815
	c0.734-0.854,2.27-2.723,4.579-5.606c1.214-1.735,2.402-3.443,3.577-5.179c1.361-1.909,2.416-2.95,3.149-3.137
	c1.055-0.268,3.991-0.454,5.394,0.32c2.336,1.268-1.763,9.076-2.43,10.531c-1.241,2.71-2.616,5.767-4.191,9.144
	c0.106-0.066,1.896-1.695,5.339-4.846c1.949-1.854,3.711-3.83,5.54-5.779c1.615-1.735,3.551-4.151,5.793-7.274
	c2.79-3.965,4.738-7.275,5.847-9.958c1.735-4.219,3.11-6.327,4.125-6.327c1.107,0,2.296,1.175,3.577,3.523
	c0.774,1.402,0.867,2.563,0.28,3.524c-0.188,0.36-2.91,6.06-8.156,17.059c6.675-6.78,11.093-10.037,13.215-9.744
	c2.136,0.294,3.204,1.229,3.204,2.816c0,0.841-0.32,1.869-0.988,3.07c-0.921,1.655-2.028,2.482-3.363,2.482
	c-0.4,0-1.068-0.16-1.989-0.493c-0.334-0.188-0.681-0.374-1.041-0.574c-0.374-0.2-0.668-0.267-0.881-0.187
	c-0.854,0.36-2.029,1.228-3.537,2.589c1.067-0.187,1.896-0.267,2.482-0.267c1.068,0,1.669,0.267,1.815,0.814
	c0.106,0.44,0.106,1.015,0,1.708c-0.106,0.561-0.228,1.122-0.334,1.709c-0.187,1.441-0.066,2.31,0.334,2.643
	c0.254,0.228,0.547,0.334,0.881,0.334c1.709,0,4.766-3.978,6.061-5.112c2.789-2.43,4.872-6.407,7.528-8.89
	c1.602-1.495,3.497-2.51,5.633-3.138c0.947-0.28,1.988-0.44,3.137-0.44c2.029,0,3.324,1.082,4.538,1.775
	c0.294-0.573,0.521-1.041,0.694-1.401l7.889,0.066c0.348,0.614-2.402,5.166-2.416,5.193c-0.961,1.868-2.402,4.658-4.364,8.329
	c-0.734,1.361-1.095,2.51-1.095,3.471c0,0.613,0.12,1.001,0.387,1.147c0.254,0.147,1.068-0.334,2.416-1.441
	c1.215-0.988,2.189-1.896,2.924-2.75c0.44-0.521,0.721-0.774,0.813-0.774c0.228,0,0.481,0.188,0.774,0.548
	c0.294,0.374,0.44,0.681,0.44,0.935c0,0.333-0.227,0.733-0.721,1.228c-0.48,0.494-0.975,1.028-1.481,1.575
	c-0.774,0.841-2.149,2.109-4.165,3.817c-1.988,1.709-3.351,2.776-4.044,3.23c-1.242,0.774-2.456,1.148-3.631,1.148
	c-0.921,0-1.749-0.268-2.51-0.802c-0.747-0.533-1.121-1.348-1.121-2.442c0-0.561,0.094-1.161,0.267-1.815
	c-2.068,1.735-3.764,2.977-5.125,3.751c-1.362,0.774-2.71,1.148-4.085,1.148c-1.361,0-2.482-0.428-3.363-1.269
	c-0.882-0.854-1.322-1.936-1.322-3.257c0-1.309,0.348-2.696,1.041-4.125c-3.79,2.443-6.82,8.743-13.388,8.743
	c-1.802,0-2.804-0.895-3.03-2.696c-0.08-0.587,0.106-1.668,0.521-3.243c0.428-1.575,0.641-2.696,0.641-3.364
	c0-0.654-0.146-0.987-0.44-0.987c-0.307,0-0.734,0.347-1.321,1.041c-1.281,1.562-2.59,3.137-3.911,4.738
	c-1.908,2.256-3.163,3.564-3.751,3.938c-0.587,0.388-1.375,0.574-2.362,0.574c-1.735,0-2.59-0.587-2.59-1.748
	c0-1.389,2.75-6.995,8.263-16.793c-4.792,6.367-10.411,13.495-18.007,18.061c-2.87,7.248-9.397,17.086-18.1,17.086
	c-3.124,0-4.592-0.961-5.38-2.376c-0.694-1.255-1.041-2.442-1.041-3.577c0-1.869,0.975-3.563,2.923-5.072
	c1.028-0.774,2.79-1.762,5.313-2.95C232.193,52.998,234.636,51.957,237.025,51.09z M235.53,54.921
	c-2.256,0.733-4.418,1.548-6.474,2.509c-0.841,0.4-1.762,1.015-2.67,1.883c-1.001,0.961-1.562,1.868-1.762,2.669
	c-0.32,1.269,0.227,1.963,1.655,2.083c0.961,0.08,2.202-0.628,3.604-2.243c1.549-1.775,3.004-3.563,4.472-5.339
	C234.609,56.176,234.983,55.642,235.53,54.921z"/>
<path d="M274.04,8.241h-9.664l-8.035,7.021l-0.214-7.021h-7.182l0.348,12.067c0.013,0.467,0.213,1.348,0.533,1.748
	c1.589,1.909,6.287,2.363,8.783,0.027L274.04,8.241z"/>
<path fill="#FDFAF3" d="M76.713,16.891c-2.39,2.644-3.577,5.58-3.577,8.823c0,3.591,1.535,5.94,4.618,7.035
	c1.441-3.004,3.311-7.102,5.633-12.28c0.588-1.282,0.882-2.403,0.882-3.364c0-1.802-0.922-2.696-2.75-2.696
	c-0.668,0-1.349,0.134-2.042,0.4C78.582,15.143,77.661,15.837,76.713,16.891 M85.202,9.31c1.869-0.067,3.537,0.48,5.006,1.642
	c1.762,1.361,2.656,3.217,2.656,5.566c0,1.441-0.334,2.99-0.987,4.685c-1.589,4.005-2.99,7.449-4.245,10.358
	c0.961-0.587,1.896-1.415,2.816-2.482c0.694-0.774,1.375-1.562,2.029-2.362c0.561-0.628,1.067-0.935,1.548-0.935
	c0.521,0,0.774,0.347,0.774,1.041c0,0.521-0.187,1.027-0.547,1.548c-2.243,3.11-4.952,5.313-8.103,6.607
	c-1.575,3.311-2.363,5.313-2.363,6.007c0,1.068,0.428,1.603,1.269,1.603c0.627,0,1.321-0.334,2.096-0.988
	c2.029-1.775,4.205-4.031,6.554-6.781c1.509-2.977,3.471-6.954,5.9-11.96c0.921-1.896,1.815-3.311,2.696-4.231
	c0.587-0.653,1.521-1.375,2.803-2.148c1.068-0.654,2.256-0.988,3.577-0.988c1.549,0,2.323,0.521,2.323,1.535
	c0,0.334-0.067,0.681-0.228,1.055c-2.349,5.072-5.673,12.587-9.971,22.572c-0.334,0.854-0.494,1.521-0.494,2.042
	c0,0.654,0.268,0.987,0.814,0.987c0.921,0,2.042-0.693,3.364-2.096c1.548-1.655,2.629-2.482,3.257-2.482
	c0.653,0,0.987,0.307,0.987,0.935c0,0.561-0.761,1.655-2.27,3.311c-1.802,1.988-3.79,3.764-5.953,5.339
	c-2.643,1.976-4.738,2.977-6.273,2.977c-2.977,0-4.458-1.615-4.458-4.846c0-1.548,0.387-3.363,1.147-5.445
	c-1.241,1.321-2.522,2.522-3.804,3.631c-3.298,2.856-5.767,4.778-7.382,5.726c-1.321,0.814-2.576,1.215-3.751,1.215
	c-1.067,0-2.029-0.347-2.91-1.041c-1.027-0.854-1.548-1.949-1.548-3.311c0-0.947,0.24-1.962,0.721-3.03
	c0.921-1.935,2.402-5.152,4.458-9.624c-4.338-1.775-6.407-4.752-6.22-8.983c0.187-4.258,1.642-8.021,4.351-11.279
	C77.741,11.191,81.185,9.416,85.202,9.31z"/>
<path fill="#FDFAF3" d="M153.639,26.315c3.084-0.694,5.526-2.189,7.328-4.459c1.401-1.788,2.096-3.431,2.096-4.898
	c0-3.19-1.241-4.792-3.697-4.792c-1.175,0-2.402,0.774-3.685,2.322c-1.734,2.096-2.482,4.939-2.269,8.529
	C153.559,25.327,153.639,26.422,153.639,26.315 M159.365,8.922c2.122-0.146,3.991,0.36,5.619,1.535
	c1.989,1.401,2.978,3.511,2.978,6.327c0,2.576-1.415,5.1-4.245,7.568c-2.83,2.483-6.141,4.111-9.932,4.872
	c0.228,5.286-0.253,9.171-1.441,11.667c-3.417,7.194-9.597,10.785-18.567,10.785c-4.912,0-8.556-1.241-10.905-3.737
	c-1.655-1.763-2.482-3.898-2.482-6.395c0-2.016,0.547-3.79,1.655-5.339c1.215-1.722,2.856-2.656,4.912-2.803
	c1.535-0.107,2.843,0.32,3.911,1.308c0.921,0.921,1.388,1.976,1.388,3.15c0,0.694-0.187,1.281-0.561,1.762
	c-0.614,0.734-1.241,1.469-1.868,2.202c-0.441,0.548-0.654,1.215-0.654,1.976c0,2.496,1.281,3.738,3.857,3.738
	c0.334,0,0.681-0.027,1.041-0.054c3.631-0.4,6.047-1.602,7.222-3.577c1.321-2.283,1.988-6.861,1.988-13.763v-1.548
	c-4.512-1.321-7.782-3.537-9.811-6.661c-0.908-1.401-1.375-2.643-1.375-3.737c0-0.987,0.427-1.562,1.281-1.709
	c0.214-0.026,0.44-0.053,0.654-0.053c0.814,0,1.401,0.36,1.762,1.107c0.254,0.734,0.521,1.481,0.774,2.256
	c0.921,2.644,3.257,4.592,7.008,5.833c0.734-5.405,2.656-9.557,5.793-12.493C152.051,10.591,155.4,9.176,159.365,8.922z"/>
<path fill="#FDFAF3" d="M228.469,37.607c0.588,0,1.843-1.001,3.738-3.03c1.135-1.214,1.708-2.482,1.708-3.804
	c0-0.588-0.227-0.881-0.667-0.881c-0.694,0-1.909,1.228-3.751,3.577c-1.201,1.535-1.869,2.643-1.869,3.417
	C227.642,37.367,227.908,37.607,228.469,37.607 M224.705,43.174c-0.187,2.016,0.561,3.03,2.202,3.07
	c1.028,0.026,2.35-0.388,3.911-1.309c1.441-0.854,2.696-1.855,3.751-2.977c1.415-1.495,2.336-2.416,2.83-2.736
	c0.493-0.32,0.801-0.467,0.907-0.467c0.294,0,0.668,0.133,1.108,0.44c0.187,0.133,0.267,0.32,0.267,0.547
	c0,0.814-1.281,2.416-3.857,4.792c-4.726,4.379-9.063,6.555-13.001,6.555c-1.202,0-2.27-0.254-3.19-0.774
	c-0.935-0.521-1.976-1.188-2.536-2.163c-0.841-1.454-0.975-2.803-0.734-4.338c-1.989,1.241-5.126,1.562-7.462,0.614
	c-2.896,3.764-5.927,5.659-9.063,5.659c-2.963,0-5.005-2.148-5.005-5.593c0-1.562,0.573-3.377,1.562-5.713
	c-4.766,7.528-8.477,11.439-11.96,11.439c-2.203,0-3.604-1.695-3.604-4.298c0-2.924,1.976-6.301,4.872-11.56
	c-4.271,4.672-8.823,10.519-13.629,14.402c-1.361,1.068-2.576,1.602-3.644,1.602c-0.814,0-1.655-0.267-2.536-0.827
	c-1.068-0.694-1.802-1.041-2.202-1.041c-0.562,0-1.349,0.36-2.363,1.107c-0.733,0.521-1.348,0.774-1.815,0.774
	c-0.921,0-1.334-0.627-1.268-1.869c0.106-1.614,1.868-4.391,5.299-8.315c2.604-2.977,5.206-5.566,7.822-7.769
	c-1.147,0.026-1.976-0.188-2.51-0.668c-0.533-0.48-1.055-0.707-1.562-0.707c-0.734,0-1.481,0.414-2.256,1.268
	c-1.909,2.056-4.458,4.819-7.662,8.316c-0.561,0.587-1.027,0.881-1.441,0.881c-0.521,0-0.774-0.32-0.774-0.935
	c0-0.587,0.308-1.228,0.908-1.896c0.601-0.681,3.083-3.483,7.408-8.409c2.029-2.31,3.217-3.631,3.577-3.964
	c0.948-0.814,2.029-1.269,3.204-1.375c1.027-0.067,2.096,0.2,3.203,0.827c1.401,0.841,2.149,1.281,2.256,1.321
	c0.587,0.147,1.015,0.214,1.269,0.214c0.733,0,1.708-0.494,2.923-1.481c0.36-0.294,0.747-0.44,1.148-0.44
	c0.813,0,1.214,0.347,1.214,1.041c0,0.521-0.293,0.987-0.881,1.441c-2.536,1.936-5.126,4.111-7.769,6.487
	c-2.202,2.029-3.497,3.311-3.885,3.857c-0.387,0.548-0.573,1.015-0.573,1.429c0,0.334,0.133,0.627,0.387,0.881
	c0.521,0.106,1.361,0.387,2.536,0.827c0.146,0.067,0.561,0.334,1.269,0.774c0.44,0.294,0.921,0.574,1.321,0.388
	c4.058-1.963,12.24-12.174,16.472-16.739l6.914-0.454c-6.1,10.839-9.864,16.686-9.864,18.234c0,0.453,0.294,0.707,0.761,0.707
	c1.255,0,3.911-2.376,7.448-7.328l6.888-11.173l7.262-0.453c-5.513,10.519-8.703,16.164-8.703,17.979
	c0,0.842,0.521,1.362,1.509,1.362c1.201,0,2.643-0.534,4.124-1.615c-0.627-1.028-0.935-2.043-0.961-3.03
	c-0.12-4.205,5.06-14.336,9.317-14.71c1.441-0.134,2.202,0.975,2.216,2.856c0,2.937-1.575,5.98-4.498,9.784
	c-0.188,0.334-1.883,2.456-2.096,2.816c2.282,0.561,5.099,0.881,6.354-1.468c2.028-3.805,3.897-7.568,7.475-10.278
	c3.004-2.282,5.7-3.404,8.05-3.404c1.534,0,2.776,0.454,3.697,1.375c1.027,1.028,1.535,2.136,1.535,3.311
	c0,1.762-1.108,3.817-3.311,6.153C232.193,39.677,228.683,41.919,224.705,43.174z"/>
<path fill="#FDFAF3" d="M294.503,43.668c1.148,0,2.536-0.828,4.165-2.47c1.201-1.295,2.162-2.55,2.883-3.805
	c1.615-2.923,2.162-5.125,1.643-6.607c-0.334-0.974-1.055-1.441-2.163-1.441c-1.481,0-3.537,2.069-6.167,6.194
	c-2.016,3.203-2.776,5.473-2.322,6.794C292.861,43.228,293.516,43.668,294.503,43.668 M236.158,50.222
	c3.27-6.233,6.02-11.626,8.262-16.138c-2.763,3.897-4.498,6.113-5.245,6.66c-0.36,0.294-0.854,0.44-1.481,0.44
	c-0.882-0.521-1.082-1.121-0.602-1.815c0.734-0.854,2.27-2.723,4.579-5.605c1.215-1.735,2.402-3.444,3.577-5.18
	c1.361-1.908,2.416-2.95,3.15-3.137c1.055-0.267,3.991-0.454,5.393,0.307c2.336,1.269-1.762,9.077-2.43,10.532
	c-1.241,2.71-2.616,5.767-4.191,9.144c0.107-0.066,1.896-1.695,5.34-4.846c1.948-1.855,3.711-3.831,5.539-5.779
	c1.615-1.735,3.551-4.151,5.793-7.275c2.79-3.964,4.739-7.274,5.834-9.957c1.734-4.219,3.109-6.327,4.124-6.327
	c1.108,0,2.296,1.174,3.577,3.523c0.774,1.401,0.868,2.563,0.28,3.524c-0.187,0.36-2.909,6.06-8.155,17.059
	c6.674-6.78,11.092-10.038,13.215-9.744c2.136,0.294,3.203,1.229,3.203,2.816c0,0.841-0.32,1.869-0.987,3.07
	c-0.921,1.655-2.029,2.482-3.364,2.482c-0.4,0-1.067-0.16-1.988-0.493c-0.334-0.188-0.682-0.374-1.041-0.574
	c-0.374-0.2-0.668-0.268-0.882-0.188c-0.854,0.361-2.028,1.229-3.537,2.59c1.068-0.187,1.896-0.267,2.483-0.267
	c1.067,0,1.668,0.267,1.814,0.814c0.107,0.44,0.107,1.014,0,1.708c-0.106,0.561-0.227,1.121-0.333,1.709
	c-0.188,1.441-0.067,2.309,0.333,2.643c0.254,0.228,0.548,0.334,0.881,0.334c1.709,0,4.766-3.978,6.061-5.112
	c2.79-2.43,4.872-6.407,7.528-8.891c1.603-1.494,3.497-2.509,5.633-3.137c0.962-0.28,1.989-0.44,3.138-0.44
	c2.028,0,3.323,1.081,4.538,1.775c0.294-0.574,0.521-1.041,0.694-1.401l7.889,0.066c0.347,0.614-2.402,5.166-2.416,5.192
	c-0.961,1.869-2.403,4.659-4.365,8.33c-0.734,1.361-1.095,2.509-1.095,3.471c0,0.613,0.12,1.001,0.388,1.147
	c0.253,0.146,1.067-0.334,2.416-1.441c1.215-0.988,2.188-1.896,2.923-2.75c0.44-0.521,0.721-0.774,0.814-0.774
	c0.227,0,0.48,0.188,0.774,0.548c0.293,0.373,0.44,0.693,0.44,0.935c0,0.333-0.228,0.733-0.721,1.228
	c-0.481,0.494-0.975,1.028-1.482,1.575c-0.773,0.841-2.148,2.109-4.164,3.817c-1.989,1.709-3.351,2.776-4.045,3.23
	c-1.241,0.774-2.456,1.147-3.631,1.147c-0.921,0-1.748-0.267-2.509-0.801c-0.748-0.533-1.121-1.348-1.121-2.442
	c0-0.561,0.093-1.161,0.267-1.815c-2.069,1.735-3.765,2.977-5.126,3.751s-2.71,1.147-4.084,1.147c-1.362,0-2.483-0.427-3.364-1.268
	c-0.881-0.854-1.321-1.936-1.321-3.257s0.347-2.696,1.041-4.125c-3.791,2.442-6.821,8.743-13.389,8.743
	c-1.802,0-2.803-0.895-3.029-2.696c-0.08-0.587,0.106-1.669,0.521-3.243c0.427-1.575,0.641-2.697,0.641-3.364
	c0-0.654-0.147-0.987-0.44-0.987c-0.308,0-0.734,0.347-1.321,1.041c-1.282,1.562-2.59,3.137-3.911,4.738
	c-1.909,2.256-3.164,3.564-3.751,3.938c-0.588,0.388-1.375,0.574-2.362,0.574c-1.735,0-2.59-0.587-2.59-1.749
	c0-1.388,2.75-6.994,8.263-16.792c-4.792,6.367-10.412,13.495-18.007,18.061c-2.87,7.248-9.397,17.086-18.101,17.086
	c-3.123,0-4.592-0.961-5.379-2.376c-0.694-1.255-1.042-2.442-1.042-3.577c0-1.869,0.975-3.564,2.924-5.072
	c1.027-0.774,2.79-1.762,5.313-2.95C231.326,52.131,233.769,51.103,236.158,50.222z M234.663,54.053
	c-2.256,0.734-4.419,1.549-6.475,2.51c-0.841,0.4-1.762,1.015-2.669,1.882c-1.001,0.961-1.563,1.869-1.763,2.67
	c-0.32,1.268,0.228,1.962,1.655,2.082c0.961,0.08,2.203-0.627,3.604-2.242c1.548-1.775,3.003-3.564,4.485-5.34
	C233.742,55.321,234.115,54.787,234.663,54.053z"/>
<path fill="#FDFAF3" d="M273.173,7.374h-9.664l-8.036,7.021l-0.214-7.021h-7.181l0.347,12.066c0.014,0.468,0.214,1.349,0.534,1.749
	c1.588,1.908,6.287,2.362,8.783,0.026L273.173,7.374z"/>
<path fill="#C90C0F" d="M75.392,15.703c-2.39,2.643-3.577,5.579-3.577,8.823c0,3.591,1.535,5.939,4.618,7.034
	c1.441-3.003,3.311-7.101,5.633-12.28c0.588-1.281,0.881-2.402,0.881-3.363c0-1.803-0.921-2.696-2.749-2.696
	c-0.668,0-1.349,0.133-2.043,0.4C77.26,13.941,76.339,14.635,75.392,15.703 M83.881,8.108c1.869-0.067,3.537,0.48,5.006,1.642
	c1.762,1.361,2.656,3.217,2.656,5.566c0,1.441-0.334,2.989-0.988,4.685c-1.588,4.005-2.989,7.448-4.244,10.358
	c0.961-0.587,1.896-1.415,2.816-2.482c0.694-0.774,1.375-1.563,2.029-2.363c0.561-0.627,1.067-0.934,1.548-0.934
	c0.521,0,0.774,0.347,0.774,1.041c0,0.521-0.187,1.027-0.548,1.548c-2.242,3.11-4.952,5.326-8.102,6.607
	c-1.575,3.311-2.363,5.313-2.363,6.007c0,1.068,0.428,1.602,1.269,1.602c0.627,0,1.321-0.333,2.096-0.987
	c2.028-1.775,4.204-4.018,6.554-6.781c1.509-2.977,3.471-6.954,5.9-11.946c0.921-1.896,1.815-3.311,2.696-4.231
	c0.587-0.654,1.521-1.375,2.803-2.149c1.068-0.654,2.256-0.987,3.577-0.987c1.549,0,2.323,0.521,2.323,1.535
	c0,0.333-0.067,0.681-0.228,1.054c-2.349,5.072-5.673,12.588-9.971,22.572c-0.334,0.854-0.494,1.521-0.494,2.042
	c0,0.654,0.267,0.988,0.814,0.988c0.921,0,2.042-0.694,3.363-2.096c1.549-1.655,2.63-2.483,3.257-2.483
	c0.654,0,0.988,0.308,0.988,0.935c0,0.561-0.761,1.655-2.27,3.311c-1.802,1.989-3.791,3.765-5.953,5.34
	c-2.643,1.976-4.738,2.977-6.273,2.977c-2.977,0-4.458-1.615-4.458-4.846c0-1.549,0.387-3.364,1.147-5.446
	c-1.241,1.321-2.522,2.523-3.805,3.631c-3.297,2.856-5.766,4.778-7.381,5.727c-1.322,0.814-2.576,1.215-3.751,1.215
	c-1.068,0-2.029-0.348-2.91-1.041c-1.027-0.854-1.549-1.949-1.549-3.311c0-0.948,0.241-1.963,0.722-3.03
	c0.921-1.936,2.402-5.152,4.458-9.624c-4.325-1.775-6.407-4.752-6.221-8.983c0.188-4.258,1.643-8.022,4.352-11.279
	C76.419,9.99,79.877,8.215,83.881,8.108z"/>
<path fill="#C90C0F" d="M152.317,25.113c3.083-0.693,5.526-2.188,7.328-4.458c1.401-1.789,2.096-3.431,2.096-4.898
	c0-3.19-1.241-4.792-3.697-4.792c-1.175,0-2.403,0.773-3.685,2.322c-1.735,2.096-2.482,4.938-2.269,8.529
	C152.251,24.126,152.317,25.221,152.317,25.113 M158.057,7.721c2.123-0.146,3.991,0.36,5.62,1.535
	c1.989,1.401,2.977,3.511,2.977,6.327c0,2.576-1.415,5.099-4.245,7.568c-2.829,2.482-6.14,4.111-9.931,4.872
	c0.227,5.272-0.254,9.17-1.441,11.666c-3.417,7.195-9.611,10.786-18.567,10.786c-4.912,0-8.557-1.241-10.905-3.737
	c-1.655-1.763-2.483-3.898-2.483-6.395c0-2.016,0.548-3.791,1.655-5.339c1.215-1.722,2.856-2.656,4.912-2.804
	c1.535-0.106,2.844,0.32,3.911,1.322c0.921,0.921,1.389,1.976,1.389,3.149c0,0.694-0.188,1.282-0.561,1.763
	c-0.614,0.733-1.242,1.468-1.869,2.202c-0.44,0.547-0.654,1.215-0.654,1.989c0,2.496,1.281,3.737,3.857,3.737
	c0.334,0,0.681-0.027,1.041-0.054c3.631-0.4,6.047-1.602,7.222-3.577c1.321-2.27,1.989-6.861,1.989-13.762v-1.549
	c-4.512-1.321-7.782-3.537-9.812-6.661c-0.907-1.401-1.374-2.643-1.374-3.737c0-0.987,0.427-1.562,1.281-1.708
	c0.213-0.027,0.44-0.054,0.653-0.054c0.814,0,1.402,0.36,1.763,1.107c0.253,0.734,0.521,1.482,0.773,2.256
	c0.922,2.644,3.258,4.592,7.008,5.834c0.734-5.406,2.656-9.558,5.794-12.494C150.742,9.39,154.093,7.975,158.057,7.721z"/>
<path fill="#C90C0F" d="M227.147,36.406c0.588,0,1.843-1.001,3.751-3.03c1.135-1.215,1.709-2.482,1.709-3.804
	c0-0.588-0.228-0.881-0.668-0.881c-0.693,0-1.908,1.228-3.751,3.577c-1.201,1.535-1.868,2.643-1.868,3.417
	C226.32,36.166,226.587,36.406,227.147,36.406 M223.396,41.973c-0.187,2.016,0.561,3.03,2.203,3.07
	c1.027,0.026,2.349-0.388,3.911-1.322c1.441-0.854,2.696-1.855,3.751-2.977c1.414-1.495,2.336-2.416,2.829-2.736
	c0.494-0.32,0.801-0.467,0.908-0.467c0.293,0,0.667,0.134,1.107,0.44c0.188,0.134,0.268,0.32,0.268,0.547
	c0,0.814-1.282,2.416-3.858,4.792c-4.725,4.379-9.063,6.555-13.001,6.555c-1.201,0-2.27-0.254-3.19-0.774
	c-0.935-0.521-1.976-1.188-2.536-2.162c-0.841-1.455-0.975-2.804-0.733-4.339c-1.989,1.241-5.126,1.562-7.462,0.614
	c-2.896,3.765-5.927,5.66-9.063,5.66c-2.964,0-5.006-2.149-5.006-5.594c0-1.562,0.574-3.377,1.562-5.713
	c-4.765,7.528-8.476,11.439-11.96,11.439c-2.202,0-3.604-1.695-3.604-4.298c0-2.924,1.976-6.301,4.872-11.56
	c-4.271,4.672-8.823,10.519-13.629,14.402c-1.361,1.068-2.576,1.603-3.645,1.603c-0.813,0-1.655-0.268-2.536-0.828
	c-1.067-0.694-1.802-1.041-2.202-1.041c-0.561,0-1.348,0.36-2.362,1.107c-0.734,0.521-1.349,0.774-1.815,0.774
	c-0.921,0-1.335-0.627-1.269-1.868c0.107-1.615,1.869-4.392,5.3-8.316c2.603-2.977,5.206-5.566,7.821-7.769
	c-1.147,0.026-1.975-0.187-2.509-0.668c-0.534-0.48-1.055-0.707-1.562-0.707c-0.734,0-1.482,0.414-2.256,1.269
	c-1.909,2.056-4.459,4.818-7.662,8.315c-0.561,0.588-1.028,0.881-1.441,0.881c-0.521,0-0.774-0.32-0.774-0.935
	c0-0.587,0.307-1.228,0.907-1.895c0.601-0.682,3.084-3.484,7.408-8.41c2.029-2.309,3.217-3.631,3.578-3.964
	c0.947-0.814,2.028-1.269,3.203-1.375c1.027-0.067,2.096,0.2,3.203,0.827c1.402,0.841,2.149,1.281,2.256,1.321
	c0.588,0.147,1.015,0.214,1.269,0.214c0.734,0,1.709-0.494,2.923-1.481c0.361-0.294,0.748-0.44,1.148-0.44
	c0.814,0,1.215,0.347,1.215,1.041c0,0.521-0.294,0.988-0.881,1.441c-2.536,1.936-5.126,4.111-7.77,6.487
	c-2.202,2.029-3.497,3.311-3.884,3.857c-0.388,0.548-0.574,1.028-0.574,1.429c0,0.334,0.134,0.627,0.388,0.881
	c0.521,0.106,1.361,0.388,2.536,0.828c0.146,0.066,0.561,0.333,1.268,0.773c0.44,0.294,0.921,0.574,1.321,0.388
	c4.059-1.963,12.24-12.174,16.472-16.739l6.915-0.453c-6.101,10.838-9.864,16.685-9.864,18.233c0,0.454,0.293,0.707,0.761,0.707
	c1.255,0,3.911-2.376,7.448-7.328l6.888-11.172l7.262-0.454c-5.514,10.519-8.703,16.165-8.703,17.98
	c0,0.841,0.521,1.361,1.508,1.361c1.201,0,2.644-0.534,4.125-1.615c-0.628-1.028-0.935-2.042-0.961-3.03
	c-0.12-4.205,5.059-14.336,9.316-14.71c1.442-0.133,2.203,0.975,2.216,2.856c0,2.937-1.575,5.967-4.498,9.784
	c-0.187,0.334-1.882,2.456-2.096,2.816c2.282,0.562,5.099,0.882,6.354-1.468c2.029-3.805,3.898-7.568,7.476-10.278
	c3.003-2.282,5.699-3.403,8.049-3.403c1.535,0,2.776,0.453,3.697,1.374c1.028,1.028,1.535,2.136,1.535,3.311
	c0,1.763-1.107,3.818-3.311,6.154C230.872,38.488,227.361,40.718,223.396,41.973z"/>
<path fill="#C90C0F" d="M293.195,42.467c1.147,0,2.536-0.828,4.164-2.47c1.201-1.295,2.163-2.55,2.884-3.805
	c1.615-2.923,2.162-5.125,1.642-6.607c-0.334-0.974-1.055-1.441-2.162-1.441c-1.482,0-3.537,2.069-6.167,6.193
	c-2.016,3.204-2.776,5.474-2.323,6.795C291.553,42.026,292.207,42.467,293.195,42.467 M234.836,49.021
	c3.271-6.233,6.021-11.613,8.263-16.138c-2.763,3.897-4.498,6.113-5.245,6.66c-0.361,0.294-0.854,0.44-1.482,0.44
	c-0.881-0.521-1.081-1.121-0.601-1.815c0.734-0.854,2.27-2.723,4.579-5.606c1.214-1.734,2.402-3.443,3.577-5.179
	c1.361-1.909,2.416-2.95,3.149-3.137c1.055-0.267,3.991-0.454,5.394,0.32c2.336,1.268-1.763,9.077-2.43,10.532
	c-1.241,2.709-2.616,5.766-4.191,9.144c0.106-0.067,1.896-1.695,5.339-4.846c1.949-1.855,3.711-3.831,5.54-5.78
	c1.615-1.735,3.551-4.151,5.793-7.274c2.79-3.965,4.738-7.275,5.833-9.958c1.735-4.218,3.11-6.327,4.125-6.327
	c1.107,0,2.296,1.175,3.577,3.524c0.774,1.401,0.868,2.563,0.28,3.523c-0.187,0.36-2.91,6.061-8.155,17.06
	c6.674-6.781,11.092-10.038,13.214-9.744c2.137,0.293,3.204,1.228,3.204,2.816c0,0.841-0.32,1.868-0.987,3.069
	c-0.922,1.655-2.029,2.483-3.364,2.483c-0.4,0-1.067-0.16-1.989-0.494c-0.333-0.187-0.681-0.374-1.041-0.574
	c-0.373-0.2-0.667-0.267-0.881-0.187c-0.854,0.36-2.029,1.228-3.537,2.59c1.067-0.188,1.896-0.268,2.482-0.268
	c1.068,0,1.669,0.268,1.815,0.814c0.107,0.44,0.107,1.015,0,1.709c-0.106,0.561-0.227,1.121-0.333,1.708
	c-0.188,1.441-0.067,2.31,0.333,2.644c0.254,0.227,0.548,0.333,0.881,0.333c1.709,0,4.766-3.978,6.061-5.112
	c2.79-2.429,4.872-6.407,7.528-8.89c1.602-1.495,3.497-2.51,5.633-3.137c0.961-0.28,1.989-0.44,3.137-0.44
	c2.029,0,3.324,1.081,4.539,1.775c0.293-0.574,0.521-1.041,0.693-1.402l7.89,0.067c0.347,0.614-2.403,5.166-2.416,5.192
	c-0.962,1.869-2.403,4.658-4.365,8.329c-0.734,1.361-1.095,2.51-1.095,3.471c0,0.614,0.12,1.001,0.387,1.148
	c0.254,0.146,1.068-0.334,2.416-1.442c1.215-0.987,2.189-1.896,2.924-2.749c0.44-0.521,0.721-0.774,0.814-0.774
	c0.227,0,0.48,0.187,0.773,0.547c0.294,0.374,0.441,0.681,0.441,0.935c0,0.334-0.228,0.734-0.722,1.229
	c-0.48,0.493-0.974,1.027-1.481,1.574c-0.773,0.842-2.148,2.109-4.164,3.818c-1.989,1.708-3.351,2.776-4.045,3.229
	c-1.241,0.774-2.456,1.148-3.631,1.148c-0.921,0-1.748-0.267-2.51-0.801c-0.747-0.534-1.121-1.349-1.121-2.443
	c0-0.561,0.094-1.161,0.268-1.814c-2.069,1.734-3.765,2.977-5.126,3.75c-1.361,0.774-2.71,1.148-4.085,1.148
	c-1.361,0-2.482-0.427-3.363-1.269c-0.881-0.854-1.321-1.936-1.321-3.257s0.347-2.696,1.041-4.124
	c-3.791,2.442-6.821,8.743-13.389,8.743c-1.802,0-2.803-0.895-3.03-2.696c-0.08-0.588,0.107-1.669,0.521-3.244
	c0.427-1.575,0.641-2.696,0.641-3.363c0-0.654-0.147-0.988-0.44-0.988c-0.308,0-0.734,0.347-1.322,1.041
	c-1.281,1.562-2.589,3.137-3.911,4.739c-1.908,2.256-3.163,3.563-3.75,3.938c-0.588,0.387-1.375,0.574-2.363,0.574
	c-1.735,0-2.589-0.588-2.589-1.749c0-1.389,2.749-6.994,8.263-16.792c-4.793,6.367-10.412,13.495-18.008,18.061
	c-2.869,7.248-9.396,17.086-18.1,17.086c-3.124,0-4.592-0.948-5.38-2.376c-0.693-1.255-1.041-2.443-1.041-3.578
	c0-1.868,0.975-3.563,2.924-5.072c1.027-0.774,2.789-1.762,5.313-2.95C230.004,50.929,232.46,49.901,234.836,49.021z
	 M233.342,52.852c-2.256,0.734-4.419,1.548-6.475,2.51c-0.841,0.4-1.762,1.014-2.67,1.882c-1.001,0.947-1.562,1.869-1.762,2.67
	c-0.32,1.268,0.228,1.962,1.655,2.082c0.961,0.08,2.202-0.627,3.604-2.242c1.548-1.775,3.003-3.564,4.484-5.34
	C232.42,54.119,232.794,53.586,233.342,52.852z"/>
<path fill="#C90C0F" d="M271.864,6.186H262.2l-8.035,7.021l-0.214-7.021h-7.182l0.348,12.067c0.013,0.467,0.213,1.348,0.533,1.748
	c1.589,1.909,6.287,2.363,8.783,0.027L271.864,6.186z"/>
<path d="M350.993,1.701c-15.524,0-28.191,15.657-28.191,34.852c0,19.195,12.667,34.853,28.191,34.853s28.191-15.657,28.191-34.853
	C379.185,17.358,366.518,1.701,350.993,1.701"/>
<path fill="none" stroke="#FFFFFF" stroke-width="0.6367" stroke-miterlimit="22.9256" d="M350.993,4.758
	c-14.176,0-25.723,14.282-25.723,31.795c0,17.514,11.56,31.796,25.723,31.796c14.176,0,25.722-14.282,25.722-31.796
	C376.715,19.04,365.155,4.758,350.993,4.758z"/>
<path fill="#FFFFFF" d="M361.778,56.068L361.778,56.068h-0.04l-0.174-0.04l-0.347-0.04l-0.721-0.066
	c-0.454-0.04-0.935-0.067-1.349-0.107c-0.854-0.066-1.588-0.106-2.096-0.106c-0.24-0.174-0.2-0.24-0.347-0.454
	c-0.548-0.106-0.895-0.895-1.241-1.415c-0.04-0.761,0.213-0.827,0.347-1.268c-0.414-1.655,0.24-4.059-0.134-5.913
	c0.614-0.828-0.347-2.684,0.201-3.711c0.213-2.003-0.041-4.205-0.414-4.686c0.106,0,0.373,0.654,0.521-0.2
	c-0.04-0.134-0.067-0.48-0.106-0.48c0-0.174,0.213-1.682,0.039-2.162c-0.066-0.2-0.133-0.28-0.173-0.24
	c-0.308,1.268-0.961-0.067-1.481-1.615c0.066-2.069,0.2-3.444,0.453-4.859l-0.173-0.106c-1.068,0.935-2.31,1.762-3.685,2.482
	c0.134-0.106,0.24-0.173,0.2-0.24c0.106-0.413-1.481,0.348-2.242,0.521c-0.694,0.414,0.547,0.04,1.067-0.2
	c-0.24,0.28-0.521,0.521-0.787,0.761c-0.2,0.067-0.454,0.174-0.654,0.24c-0.134,0.04-0.24,0.04-0.24-0.04
	c-0.374,0-0.106-0.453-0.694-0.173c-1.762,0.453,0.04,0.413-1.441,0.895c0.04,0.04,0.106,0.04,0.134,0.04
	c-0.48,0.133-1.001,0.28-1.481,0.373c-0.374-0.066-0.722-0.173-0.107-0.547c-0.547,0.066-0.867-0.04-1.655,0.134
	c-1.027,0.373-1.788,0.521-2.549,0.521H339.3h-0.614l-0.347,0.04h-0.04v0.04c0.588-0.654-0.827,0.854-0.694,0.721v0.106v0.174
	c0.067-0.28,0.174,0.133,0.24,0.173c-0.066,1.375-0.347,1.175-0.587,1.068c-0.134-0.04-0.24-0.04-0.28,0.2l-0.04,0.066v0.067v0.04
	v0.04c0.587,0.613-1.415-1.415,1.375,1.375c0.106,0,0.2,0.04,0.347,0.04c0.24,0,0.587,0,1.068-0.04c0.48-0.04,0.787-0.107,0.827-0.2
	c0.174,0.04,0.347,0.066-0.106,0.106c2.442,0.28,0.347-0.106,1.828-0.24l-1.722,0.134c0-0.04-0.04-0.067-0.066-0.067
	c-0.454-0.106-0.895-0.307-1.655-0.24c0-0.066-0.28-0.106-0.521-0.134c-1.482-1.481-0.414-0.413-0.721-0.721v-0.04v-0.04v-0.066
	l0.066-0.066c0,0,0.04,0,0.04,0.04l0.066,0.066v0.066v0.04c0.04,0,0.04,0,0.04,0c0.107,0.107,0.24,0.24,0.521,0.521h0.04
	c1.683,0.107,2.51-0.307,3.858-0.133l0.453-0.134c0.521,0.04,1.896,0.04,2.51,0.44c1.789,1.028-0.28,0.2-0.374,0.48
	c0.48,0.174,0.895,0.454,1.175,0.788c1.415,1.027,0.348,2.749,0.961,4.271l-0.133-0.174c-0.24-0.935-0.454,0.307-0.454,1.001
	l0.106,0.521c0.521,0.854,0.2,3.444,0.348,5.166c0,0.374-0.107,0.521-0.134,0.2c-0.066,0.654-0.134,1.241-0.24,1.855
	c0.454,0.521,0,1.348-0.106,2.31c0.04,0.693,0.24,0.961-0.067,1.788c-1.415,1.375-3.137,1.763-5.379,1.615
	c-0.348,0.374-1.789,0.548-0.654,0.935c-0.414-0.174-0.587,0.066-0.654,0.374c-0.04-0.04-0.066-0.04,0,0
	c-0.106,0.347-0.066,0.787-0.133,0.961l-0.04,0.414c0.133,0.2-0.414-0.134,0.347,0.521l0.214,0.04l0.894,0.066
	c1.135,0.134,2.31,0.2,3.444,0.24c0.2-0.066,0.374-0.106,0.547-0.174c0.107-0.2,0.348-0.413,0.614-0.653
	c3.097-0.107,5.3-0.2,5.62-0.2c0.106,0,0.24,0,0.453,0c0.067,0.04,0.134,0.066,0.24,0.106c2.096,0.721,4.686,1.375,7.782,1.789
	c0.588-0.2,1.175-0.2,1.829-0.308l0.134,0.04c0.453-0.454-0.588,0.588,0.199-0.2c0.134,0.134,0.107,0.107,0,0
	c0.201-0.2,0.548-0.521,1.068-1.001v-0.04v-0.066l0.04-0.24l0.106-0.454l0.2-0.935v-0.106v-0.04
	C364.395,59.059,361.472,55.722,361.778,56.068"/>
<path fill="#FFFFFF" d="M340.047,25.101c-0.08-0.054-0.146-0.08,0.16-0.174C340.141,24.98,340.101,25.047,340.047,25.101
	 M351.14,20.401c0.014,0,0.014-0.106,0.026-0.24l0.107,0.147c0,0.187,0.014,0.387,0.014,0.561c-0.054-0.067-0.094-0.107-0.16-0.174
	C351.14,20.602,351.14,20.509,351.14,20.401z M351.287,19.961c0,0.067,0,0.107,0,0.16c-0.027-0.053-0.067-0.093-0.094-0.133
	C351.207,19.774,351.246,19.628,351.287,19.961z M348.604,11.766L348.604,11.766C348.563,11.806,348.551,11.832,348.604,11.766z
	 M348.978,11.405L348.978,11.405z M349.338,11.378v0.014C349.338,11.378,349.338,11.378,349.338,11.378z M354.584,11.979v-0.573
	c-0.494,0-0.708,0-1.201,0.026c-0.748,0.054-1.362,0.08-1.549,0.08c-0.08,0-0.214,0-0.334,0c0.094-0.014,0.174-0.026,0.174-0.066
	c0.267-0.094-1.295-0.268-2.016-0.32c-0.026,0-0.054,0-0.08,0.013c-0.054-0.013-0.094-0.013-0.146-0.026
	c0.026,0.014,0.053,0.026,0.08,0.026c-0.188,0.027-0.054,0.054,0.213,0.08c0.107,0.027,0.24,0.08,0.374,0.147
	c-0.106,0.013-0.24,0.026-0.347,0.053c-0.067,0-0.134,0-0.188,0c-0.173-0.053-0.347-0.093-0.561-0.146
	c-0.094,0-0.187-0.014-0.267-0.014c0-0.013,0-0.026,0-0.026c-0.014-0.026-0.026-0.054-0.08-0.066h-0.014h-0.014
	c0.014,0,0,0-0.013,0.013l0,0c-0.027,0.054-0.147,0.16-0.214,0.228v0.013l-0.014,0.067c0,0.053,0,0.093,0,0.173
	c0,0.094,0,0.188,0,0.268v0.026v0.014c-0.026-0.027,0.094,0.106,0.188,0.213c-0.134,0.107-0.16,0.16,0,0
	c0.08,0.08,0.133,0.147,0.026,0.027h0.014l0.053,0.013h0.094c0.134,0,0.214,0,0.254,0c0.106-0.013,0.106-0.053,0.106-0.066
	c-0.013-0.054-0.054-0.134,0.641-0.066c-0.013-0.014-0.054-0.027-0.093-0.054c0.547,0.054,0.907,0.16,1.188,0.467l-0.587-0.026
	l0.133,0.066c0.24,0.067,0.32,0.027,0.494,0.014c0,0,0,0,0,0.014c0.106,0.267,0.16,0.561-0.214,0.134
	c0.228,0.347,0.188,0.627,0.334,1.281c0.4,1.882,0.094,2.763,0.188,4.484c0.026-0.24,0.08,0.107,0.106,0.16
	c-0.026,1.883-0.334,0.388-0.4,1.202c-0.067-0.067-0.147-0.147-0.268-0.294l0.268,0.307c-0.014,0.134-0.014,0.308-0.014,0.534
	c-0.146-0.16-0.294-0.347-0.427-0.561l-0.32-0.268c-0.174-0.24-0.561-0.667-0.895-1.107l-0.268-0.334
	c-0.093-0.133-0.173-0.24-0.24-0.347c-1.107-1.535,0.228,0,0.334,0l-0.907-1.269c-1.269-1.308-1.603-2.522-2.724-3.604l0.147,0.094
	c0.613,0.641-0.014-0.348-0.334-0.828c-0.094-0.106-0.214-0.24-0.308-0.347c-0.146-0.134-0.307-0.348-0.48-0.628l-0.013-0.026
	c0.48,0.227-0.641-0.32-0.534-0.267l-0.014,0.013h-0.066l-0.134,0.027l-0.267,0.053c-0.174,0.054-0.387,0.054-0.574,0.054
	c-0.814,0.054-1.762-0.066-2.563-0.054c-0.32-0.013-0.454-0.08-0.174-0.066l-0.187-0.026h-0.094h-0.026
	c-1.135,1.054-0.32,0.293-0.574,0.533v0.014v0.054l-0.026,0.413v0.067v0.013v0.014c-0.054-0.066,0.173,0.214,0.373,0.414
	c-0.08,0.08-0.093,0.093,0,0c0.214,0.227,0.374,0.4,0.134,0.146h0.014l0.093,0.026l0.214,0.027l0.387,0.08
	c0.562-0.094,0.988,0.106,1.042,0.854c0.146,0.627,0.24,0.854,0.32,1.762c-0.147,2.322,0.053,3.724-0.147,5.807
	c0.174,0.32,0.107,1.588,0.388,0.627c-0.08,1.095-0.48,2.189-1.549,2.229c-0.106,0.013-0.227,0.026-0.347,0.053l-0.188-0.026h-0.013
	c-0.334-0.334-0.214-0.214,0.026,0.026l-0.014,0.014h-0.026h-0.014c-0.093,0.106,0.228-0.254-0.227,0.254V24.3l-0.014,0.013v0.094
	l-0.013,0.387v0.054l-0.014,0.026v0.014c0.587,0.574,0.174,0.16,0.307,0.294h0.094h-0.08c-0.026,0.053-0.053,0.053-0.014,0.026
	l0.014-0.014h0.054l0.066-0.013l0.067,0.013c0.547,0,1.054-0.013,1.588-0.026l0.428-0.094c0.106-0.093,0.333-0.187,0.573-0.307
	c0.188,0,0.574,0.014,1.108,0.054c0.387,0.133,0.747,0.173,1.041,0.187c0.08-0.054,0.146-0.094,0.187-0.146
	c0.228,0.013,0.48,0.013,0.801,0.026v-0.614c-0.667-0.054-1.175-0.08-1.548-0.187c-0.08-0.054-0.16-0.094-0.254-0.16
	c-0.721-0.588-0.507-1.749-0.534-2.884c0.054-1.161,0.107-2.442,0.147-3.777c-0.014-0.134-0.054-0.254-0.067-0.4
	c0.308,0.307,0.494,0.454,0.32,0.134c-0.133-0.16-0.253-0.32-0.373-0.48c-0.027-0.24-0.067-0.48-0.094-0.734
	c0.08,0.106,0.174,0.227,0.267,0.334c0.548,0.641,1.055,1.188,1.455,1.534c0.16,0.254,0.134,0.268,0.294,0.548
	c0.414,0.427,1.108,1.428,1.548,1.829c0.401,0.641,0.334,0.707,0.534,1.134c0.548,0.628,1.095,1.389,1.615,2.163
	c0.268,0.373,0.534,0.747,0.721,1.094c0.094,0.174,0.188,0.334,0.268,0.508l0.066,0.146l0.026,0.067l0.014,0.026v0.014
	c-0.106-0.094,1.095,0.867,0.574,0.467h0.014l0.32,0.014c0.173,0.093,0.413,0.146,0.693,0.187l0.428,0.054h0.106h0.026h0.014
	c0.374-0.454-0.828,1.015,0.827-0.988V24.9l-0.013-0.054l-0.08-0.174c-0.174-0.467-0.24-1.067-0.107-1.521
	c0.107-1.762,0.027-3.725-0.146-4.178c0.054,0,0.174,0.613,0.254-0.16c-0.014-0.147-0.027-0.454-0.054-0.454
	c0-0.16,0.094-1.509,0.026-1.936c-0.013-0.174-0.026-0.24-0.066-0.187c-0.146,0.867-0.334,0.333-0.494-0.614
	c-0.053-0.254-0.093-0.534-0.146-0.828c0.026-0.573,0.066-0.854,0.134-1.254C352.821,12.566,353.449,12.072,354.584,11.979z"/>
<path fill="#FFFFFF" d="M349.592,18.84l0.24,0.187c-0.268-0.347-0.454-0.613-0.614-0.867
	C348.817,17.719,349.338,18.466,349.592,18.84"/>
<path fill="#FFFFFF" d="M348.377,11.405L348.377,11.405C348.297,11.485,348.31,11.445,348.377,11.405"/>
<path fill="#FFFFFF" d="M349.979,18.306l-0.854-1.081l0.094,0.308C349.845,18.466,349.498,17.705,349.979,18.306"/>
<path fill="#FFFFFF" d="M360.951,10.645l-0.308-0.027l0.054,0.134C360.924,10.817,360.764,10.631,360.951,10.645"/>
<path fill="#FFFFFF" d="M361.044,11.298c-0.053-0.013-0.133-0.013-0.213-0.013c0-0.014,0.013-0.014,0.026-0.027c0,0,0,0,0.014,0
	c0.066-0.013,0.146,0,0.24,0L361.044,11.298z M359.549,11.898L359.549,11.898c0,0.014,0,0.014,0,0.027V11.898z M361.524,15.529
	c-0.013,0-0.053,0-0.066,0.014c-0.347,0.16-0.707,0.307-0.907,0.334c0.013,0.08,0.026,0.133,0.026,0.187
	c-0.026,0-0.066,0-0.094-0.014c0-0.08-0.013-0.146-0.146-0.133c-0.026-0.014-0.054,0-0.08,0c0-0.014,0-0.027,0.014-0.054
	l-0.067,0.014c-0.053,0.026-0.066,0.08-0.066,0.106c-0.026,0.054-0.066,0.094-0.066,0.146c-0.067-0.066-0.134-0.066-0.188-0.066
	c0.014-0.014,0.014-0.054,0.014-0.066c-0.146,0.026-0.054-0.24-0.254-0.24c0.228-0.188-0.24-0.134-0.026-0.32
	c0.054-0.188-0.134-0.348-0.308-0.388c0.054,0,0.188,0.027,0.24-0.066c-0.013-0.014-0.026-0.026-0.053-0.026
	c0-0.014,0.053-0.174-0.027-0.228c-0.053-0.014-0.066-0.014-0.093,0c-0.134,0.146-0.428,0.026-0.708-0.146
	c-0.013-0.107-0.013-0.228-0.013-0.348c0-0.133,0-0.24,0.013-0.347c0,0.026,0.027,0.054,0.054,0.054
	c0.146,0.026,0.214-0.174,0.24-0.254c-0.066-0.094-0.106,0.054-0.134,0.106l-0.146-0.133c0-0.027,0-0.067,0-0.094
	c0.014,0,0.026-0.014,0.066-0.014c0.067-0.026,0.214,0.027,0.188-0.053c0.066-0.188-0.188-0.027-0.174-0.214
	c-0.014,0-0.026,0-0.054,0c0.014-0.066,0.027-0.134,0.054-0.187c0.08-0.014,0.174-0.027,0.24,0.066
	c0.026-0.054,0.146-0.066,0.146-0.146c-0.146-0.308,0.147-0.308,0.174-0.494c-0.054,0-0.066-0.054-0.094-0.08
	c0.228-0.16,0.414,0.334,0.48,0.053c0.014-0.026,0-0.066-0.013-0.093c0-0.014,0.026,0,0.013,0.026
	c0.174-0.026-0.013-0.054,0.014-0.214l-0.053,0.16l-0.014-0.013c-0.066-0.014-0.16-0.054-0.16,0.026
	c-0.054-0.026-0.107,0.066-0.16-0.066c0.053-0.027,0.066-0.08,0.08-0.134c0.254-0.054,0.547-0.16,0.827-0.16
	c0.067,0.08,0.134,0.16,0.214,0.066l-0.026,0.054c-0.08,0.054-0.054,0.227-0.014,0.227l0.054-0.026
	c0.16-0.187,0.24,0.054,0.373,0.134c0.014,0.026-0.013,0.066-0.053,0.053c0.013,0.067,0.013,0.107,0,0.188
	c0.227-0.067,0.066,0.106,0.133,0.174c0.107,0.053,0.214,0.053,0.308,0.146c-0.08,0.294,0.16,0.427,0,0.721
	c0.16,0.014,0.227,0.187,0.4,0.054c-0.08,0.307-0.254,0.561-0.334,0.813l0.08,0.067c0.08,0.013,0.174,0.053,0.294,0.093
	C361.618,15.076,361.592,15.303,361.524,15.529z M363.7,15.156c-0.013-0.054-0.026-0.067-0.066-0.067
	c-0.174,0.214-0.414-0.093-0.641-0.4c0.014-0.16,0.026-0.334,0.026-0.534c0-0.16-0.014-0.307-0.026-0.467
	c0.014,0.014,0.026,0.026,0.066,0.026c0.134,0.027,0.174-0.293,0.16-0.427c-0.106-0.134-0.08,0.106-0.08,0.214l-0.187-0.134
	c-0.014-0.054-0.014-0.106-0.027-0.16c0-0.014,0.014-0.014,0.027-0.014c0.053-0.08,0.213-0.053,0.16-0.16
	c-0.066-0.333-0.174,0.027-0.294-0.213c-0.013,0.013-0.013,0.013-0.026,0.026c-0.027-0.08-0.066-0.174-0.107-0.254
	c0.054-0.08,0.094-0.16,0.228-0.094c-0.026-0.093,0.054-0.213-0.066-0.32c-0.414-0.213-0.334-0.493-0.694-0.693
	c0.014,0.053-0.066,0.053-0.094,0.066c-0.4-0.334,0.467-0.374-0.294-0.641c-0.093-0.026-0.173-0.026-0.187,0.014
	c-0.026-0.014-0.066-0.054,0.026-0.027c-0.467-0.24-0.08,0.014-0.4,0.027l0.374,0.013c0,0-0.014,0.014,0,0.027
	c0.066,0.08,0.106,0.187,0.254,0.227c-0.027,0.054,0.174,0.16,0,0.187c-0.24-0.173-0.428-0.093-0.641-0.146
	c0.093,0,0.16-0.014,0.133-0.08c-0.413-0.32-0.961-0.347-1.441-0.294c-0.16-0.066-0.307-0.093-0.467,0.054l0.013-0.066
	c0.174-0.134-0.093-0.188-0.24-0.147l-0.093,0.08c-0.054,0.107-0.188,0.214-0.348,0.294c0.027-0.066,0.027-0.106,0.08-0.146
	l-0.146,0.066v0.094c-0.16,0.08-0.334,0.16-0.454,0.293c-0.066,0.027-0.106,0.014-0.066-0.026l-0.374,0.174
	c0.066,0.227-0.187,0.187-0.32,0.4c-0.014,0.187,0.014,0.267-0.014,0.48c-0.4,0.374-0.253,0.734-0.547,1.121
	c0.16,0.094,0.174,0.347,0.387,0.187c-0.146,0.4-0.32,0.801-0.32,1.241l0.107,0.08c0.08,0.014,0.187,0.027,0.307,0.054
	c0.08,0.348,0.227,0.668,0.4,0.948c0,0.013-0.014,0.026-0.014,0.053c-0.053,0.468,0.174,1.108,0.722,1.482
	c0.133,0.013,0.267,0,0.413,0l0.334,0.24c0.094,0.013,0.214,0.026,0.307,0.053c-0.013,0.054,0.027,0.094,0.268,0.147
	c0.066,0.013,0.106,0.013,0.16,0.013c0,0.014-0.014,0.027-0.027,0.054l0.16,0.014c0.081-0.027,0.147-0.08,0.134-0.134
	c0.08-0.054,0.134-0.094,0.134-0.146c0.267,0.093,0.574-0.107,0.814-0.094c0-0.014,0.013-0.027,0.013-0.054
	c0.027,0.014,0.054,0.026,0.08,0.054c0.321-0.188,0.908-0.214,1.122-0.614c0.347,0.094,0.32-0.494,0.641-0.507
	c0.387-0.294,0.413-0.814,0.307-0.962c0.054,0.014,0.106,0.188,0.254,0.054c0-0.026,0-0.106-0.014-0.106
	C363.58,15.569,363.768,15.289,363.7,15.156z"/>
<path fill="#FFFFFF" d="M360.189,15.557c-0.026-0.174,0,0.133,0,0.16c0.054,0.013,0.014-0.08,0.027-0.067
	C360.163,15.529,360.23,15.623,360.189,15.557"/>
<path fill="#FFFFFF" d="M360.23,15.649c0,0.014,0.013,0.014,0.013,0.027C360.243,15.677,360.23,15.677,360.23,15.649"/>
<path fill="#FFFFFF" d="M359.923,12.42l0.08-0.054l-0.054-0.094C359.856,12.246,359.963,12.393,359.923,12.42"/>
<path fill="#FFFFFF" d="M360.671,18.746l0.053-0.066c-0.066,0-0.106-0.014-0.146-0.054C360.483,18.68,360.604,18.733,360.671,18.746
	"/>
<path fill="#FFFFFF" d="M363.167,18.746c0.053-0.133-0.174-0.213-0.268-0.24c-0.093,0.08,0.067,0.107,0.134,0.134l-0.106,0.16
	h-0.094c-0.014-0.014-0.026-0.026-0.026-0.054c-0.027-0.066,0.013-0.213-0.067-0.187c-0.227-0.026-0.013,0.187-0.214,0.214
	c0,0.013,0.014,0.026,0.014,0.026h-0.187c-0.026-0.08-0.08-0.16,0.013-0.254c-0.08-0.013-0.106-0.106-0.213-0.08
	c-0.268,0.214-0.388-0.053-0.628,0.014c0.027,0.014-0.013,0.066-0.013,0.106c-0.334-0.08,0.093-0.547-0.348-0.427
	c-0.066,0.014-0.093,0.066-0.093,0.106c-0.027-0.013-0.054-0.013,0-0.053c-0.308-0.08-0.027,0.053-0.228,0.146l0.228-0.094
	c0,0.014,0,0.027,0,0.027c0.066,0.053,0.106,0.146,0.213,0.093c0,0.054,0.147,0.054,0.067,0.16c-0.214-0.026-0.308,0.16-0.48,0.107
	l-0.054,0.08c-0.054,0-0.134,0.053-0.187,0.053h-0.067c-0.013,0-0.054,0-0.066-0.013c-0.254-0.067,0.013-0.174,0.026-0.268
	l-0.213-0.053c-0.134,0.093-0.228,0.026-0.32-0.027c0.08-0.053,0.106-0.093,0.026-0.146c-0.094-0.014-0.174-0.014-0.268,0
	c-0.013-0.066-0.093-0.146-0.16-0.134l-0.066,0.054c-0.014,0.026-0.054,0.066-0.08,0.08c-0.08,0-0.174-0.014-0.254-0.066
	c-0.013,0.053,0.014,0.08,0.067,0.106c-0.107,0.014-0.254-0.014-0.374,0.014c-0.026,0-0.066-0.054-0.014-0.067l-0.227-0.093
	c-0.08,0.227-0.174,0.013-0.32,0.053c-0.08,0.094-0.106,0.174-0.24,0.254c-0.32-0.174-0.508,0.066-0.801-0.134
	c-0.054,0.174-0.228,0.214-0.08,0.4l-0.228-0.08l-0.093-0.053l-0.067-0.027H356.8c-0.08,0.08,0.213-0.213-0.188,0.188l-0.013,0.013
	V18.8c-0.067,0.146-0.134,0.294-0.16,0.427l0.08,0.067c0.08,0.013,0.173,0.053,0.293,0.08v0.066
	c-0.066,0.067-0.106,0.107-0.133,0.147c0.013-0.027,0.066-0.067,0.133-0.147v0.641h0.094c-0.014,0.014-0.026,0.027-0.026,0.054
	c0.253,0.307,0.573,0.561,0.947,0.694c0.066-0.067,0.146-0.107,0.228-0.174l0.227,0.16c0.227,0,0.494-0.054,0.641-0.267
	c0.026,0.026,0.026,0.066,0.08,0.093c0.08-0.066,0.24,0,0.32-0.106c0.106,0.066,0.106,0.16,0.174,0.254
	c0.227-0.094,0.507,0.173,0.734,0c0.106,0.293,0.32-0.16,0.453,0.093c0.254,0.107,0.508-0.013,0.574-0.187
	c0,0.054-0.08,0.174,0.014,0.24c0.026-0.014,0.066-0.026,0.066-0.054c0.026,0,0.214,0.08,0.267,0
	c0.027-0.026,0.027-0.053,0.027-0.08c-0.16-0.146,0-0.427,0.187-0.707h1.695v-1.309h-0.348
	C363.167,18.773,363.167,18.76,363.167,18.746"/>
<path fill="#FFFFFF" d="M358.268,21.189c0,0.133,0.188,0.173,0.254,0.24c0.134-0.067,0.267-0.188,0.187-0.268
	C358.562,21.149,358.428,21.27,358.268,21.189"/>
<path fill="#FFFFFF" d="M360.497,18.253c0.16,0.066,0.054-0.107,0.146-0.134l-0.173,0.014L360.497,18.253z"/>
<path fill="#D7B46A" d="M57.865,37.261c0,19.288-12.814,35.026-28.525,35.026S0.814,56.549,0.814,37.261S13.629,2.234,29.34,2.234
	S57.865,17.973,57.865,37.261"/>
<path fill="#FFFFFF" d="M55.609,37.261c0,17.9-11.8,32.489-26.27,32.489S3.07,55.147,3.07,37.261c0-17.9,11.8-32.49,26.27-32.49
	S55.609,19.374,55.609,37.261"/>
<path fill="#CE0B10" d="M54.168,37.261c0,17.192-11.159,31.222-24.828,31.222S4.512,54.453,4.512,37.261S15.671,6.039,29.34,6.039
	S54.168,20.068,54.168,37.261"/>
<path fill="#FFFFFF" d="M53.06,37.261c0,16.658-10.651,30.247-23.72,30.247c-13.067,0-23.72-13.589-23.72-30.247
	c0-16.659,10.651-30.247,23.72-30.247S53.06,20.602,53.06,37.261"/>
<path d="M8.677,52.077c0.106-0.694,0.214-1.389,0.467-2.029c-0.053-0.24,0.214-0.733,0.308-0.987
	c0.054-0.388,0.227-0.975,0.507-1.241c0.04-0.24,0.134-0.534,0.294-0.721c0.214-0.494,0.547-0.988,0.734-1.469
	c0.053-0.08,0.133-0.174,0.2-0.24c0.133-0.547,0.507-1.055,0.801-1.549c0.08-0.106,0.174-0.187,0.254-0.28
	c0.28-0.533,0.561-0.881,1.001-1.294c0.681-0.548,1.375-1.108,1.988-1.735c0.08-0.174,0.188-0.334,0.294-0.494
	c0.2-0.534,0.4-1.081,0.748-1.549c0.16-0.173,0.4-0.493,0.627-0.641c0.054-0.106,0.12-0.2,0.187-0.307
	c0.214-0.761,0.254-1.749,0.12-2.523c-0.106-0.2-0.2-0.387-0.293-0.573c-0.014-0.16-0.014-0.308-0.014-0.454
	c0.187-0.454,0.414-0.907,0.507-1.389c-0.04-0.2-0.133-0.493-0.24-0.653c-0.013-0.134-0.133-0.494-0.04-0.574
	c-0.013-0.026-0.026-0.04-0.026-0.054c0.014-0.133,0.026-0.24,0.04-0.36c0.2-0.533,0.547-1.041,0.774-1.562
	c0.307-1.135,0.387-2.376,0.187-3.551c-0.134-0.307-0.28-0.574-0.36-0.895c0-0.28,0-0.547,0-0.813
	c0.106-0.602,0.294-1.202,0.801-1.575c0.668-0.188,1.389-0.2,2.069-0.334c0.521-0.254,0.987-0.747,1.428-1.135
	c0.641-0.721,1.269-1.428,1.909-2.136c0.04-0.054,0.094-0.106,0.146-0.146c0.48-0.428,0.922-0.881,1.442-1.255
	c0.347-0.2,0.693-0.387,1.041-0.574c0.641-0.214,1.268-0.427,1.908-0.654c0.868-0.133,1.735-0.253,2.604-0.373
	c0.653-0.174,1.321-0.48,1.936-0.721c1.067-0.534,2.136-1.055,3.217-1.575c0.521-0.12,1.001-0.147,1.521,0
	c0.174,0.066,0.347,0.146,0.521,0.227c0.24,0.187,0.32,0.4,0.4,0.708c0,0.601-0.307,1.281-0.587,1.802
	c0,0.374,0.28,0.895,0.387,1.241c0.014,0.174,0.04,0.347,0.066,0.521c-0.053,0.387-0.227,0.787-0.333,1.188
	c0.013,0.521,0.04,1.054,0.066,1.588c-0.04,0.16-0.12,0.24-0.066,0.428c0.12,0.16,0.267,0.307,0.333,0.493
	c0.014,0.107,0.04,0.2,0.067,0.32c0,0.334,0,0.681,0.013,1.028c0.348,0.374,0.708,0.747,1.068,1.121
	c0.454,0.48,0.895,0.947,1.349,1.441c0.761,0.801,1.534,1.602,2.296,2.416c0.547,0.561,1.094,1.135,1.642,1.722
	c0,0.014,0,0.04,0,0.067c-1.188,0.026-2.35,0.053-3.524,0.08c-0.013,0.013-0.026,0.04-0.026,0.066
	c0.026,0.32,0.054,0.641,0.106,0.961c0.134,0.641,0.388,1.015,0.948,1.335c0.2,0.054,0.4,0.134,0.601,0.2
	c1.027,0.067,2.056,0.147,3.083,0.228c0.468,0.12,0.814,0.253,1.161,0.601c0.054,0.12,0.134,0.227,0.2,0.347
	c0.04,0.174,0.08,0.347,0.147,0.534c0,0.587,0.013,1.295-0.174,1.882c-0.106,0.2-0.214,0.48-0.4,0.627
	c-0.066,0.027-0.146,0.067-0.214,0.12c-1.321,0.28-2.469-1.401-3.724-0.867c-0.588,0.48-0.548,1.161-0.601,1.882
	c-0.054,0.228-0.188,0.454-0.32,0.654c0.026,0.214,0.053,0.427,0.106,0.667c0.094,1.055,0.094,2.136,0.066,3.204
	c-0.28,0.987-1.441,1.468-2.216,2.002c-0.36,0.548-0.533,1.215-1.041,1.655c0.014,0.08,0.027,0.174,0.054,0.254
	c0-0.026,0.014-0.04,0.026-0.054c0.014,0,0.027,0,0.054,0c0,0.027,0,0.067,0,0.12c0.014,0,0.026,0,0.054,0.014
	c-0.014,0.146,0.053,0.134,0.173,0.16c0.067,0.106,0.107,0.146,0.2,0.2c0,0.254,0.228,0.387,0.36,0.574
	c0.027,0.066,0.054,0.146,0.107,0.213c0.227,0.228,0.24,0.721,0.547,0.868c0.066,0.24,0.146,0.494,0.227,0.734
	c-0.133,0.32,0.348,0.613,0.508,0.867c0.014,0,0.04,0,0.066,0c0,0.014,0,0.026,0,0.04c0.027,0.014,0.054,0.04,0.08,0.066
	c0.32,0.348,0.654,0.694,0.988,1.042c0.28,0.387,0.601,0.947,0.947,1.294c0.134,0.308,0.334,0.694,0.561,0.922
	c0.374,0.613,0.761,1.241,1.161,1.882c0.067,0.146,0.334,0.774,0.508,0.867c0.28,0.521,0.534,1.135,0.907,1.589
	c-4.338,5.94-10.519,9.664-17.353,9.664C20.49,67.508,12.748,61.274,8.677,52.077"/>
<path fill="#45B384" d="M22.679,66.293c0.134-0.2,0.268-0.4,0.414-0.573c0.107-0.067,0.628-0.734,0.708-0.654
	c0.253-0.334,0.667-0.574,0.987-0.828c0.214-0.213,0.654-0.373,0.854-0.627c0.134-0.106,0.254-0.187,0.4-0.28
	c0.146-0.146,0.32-0.307,0.534-0.374c0.253-0.254,0.627-0.467,0.934-0.707c0.107-0.16,0.24-0.388,0.414-0.48
	c0.214-0.374,0.334-0.881,0.468-1.295c0.053-0.054,0.133-0.388,0.146-0.494c0.146-0.36,0.334-0.774,0.44-1.161
	c0.04-0.134,0.08-0.24,0.134-0.36c0.066-0.348,0.146-0.694,0.227-1.041c0.026-0.454,0.054-0.881,0.106-1.309
	c0.454-0.174,0.922-0.374,1.415-0.521c0.228-0.08,0.48-0.24,0.721-0.294c0.107-0.106,0.36-0.133,0.494-0.173
	c0.428-0.32,1.108-0.374,1.469-0.802c0.106,0,0.187-0.08,0.213-0.187c0.12,0,0.308-0.187,0.348-0.294c0.066,0,0.16-0.187,0.2-0.253
	c0.013-0.014,0.04-0.014,0.066-0.014c0-0.146,0.32-0.4,0.4-0.508c0.014,0,0.027,0,0.04,0c0-0.106,0.188-0.293,0.294-0.293
	c0-0.188,0.454-0.468,0.561-0.574c0-0.106,0-0.187,0-0.28c-0.04-0.026-0.094-0.04-0.134-0.054c0-0.16-0.16-0.173-0.267-0.187
	c-0.066,0.026-0.146,0.054-0.2,0.106c-0.04,0.08-0.12,0.107-0.187,0.147c-0.12,0.146-0.28,0.32-0.428,0.4
	c-0.12,0.12-0.521,0.453-0.521,0.627c-0.307,0.146-0.494,0.48-0.761,0.668c-0.307,0.36-0.601,0.573-1.028,0.813
	c-0.533,0.174-1.161,0.374-1.654,0.628c-0.348,0.054-0.694,0.134-1.028,0.2c-0.106-0.106-0.026-0.414-0.026-0.547
	c-0.04-0.428-0.067-0.854-0.107-1.269c0.334-0.16,0.668-0.32,1.002-0.48c0.521-0.308,1.001-0.654,1.441-1.041
	c0.013,0,0.026,0,0.053,0c0.188-0.294,0.601-0.414,0.762-0.734c0.026,0,0.053,0,0.106,0c0-0.106,0.054-0.12,0.134-0.16
	c0.026-0.107,0.053-0.188,0.173-0.134c0.228-0.36,0.548-0.587,0.868-0.907c0-0.188,0.04-0.574-0.254-0.48
	c-0.12,0.093-0.227,0.187-0.334,0.293c-0.013,0.027-0.013,0.054-0.013,0.094c-0.147,0-0.4,0.12-0.4,0.294
	c-0.188,0-0.508,0.347-0.574,0.507c-0.04,0.014-0.094,0.04-0.134,0.067c-0.307,0.253-0.587,0.533-0.881,0.813
	c-0.667,0.428-1.401,0.881-2.149,1.135c-0.053,0-0.12,0-0.16,0c-0.093-0.214-0.213-0.48-0.347-0.654
	c-0.026-0.093-0.054-0.173-0.094-0.253c-0.173-0.24-0.373-0.48-0.521-0.734c-0.026-0.014-0.053-0.014-0.08-0.014
	c0-0.2-0.347-0.48-0.414-0.641c-0.026-0.014-0.04-0.014-0.053-0.014c0-0.053-0.16-0.2-0.2-0.213c0-0.027,0-0.04,0-0.054
	c-0.027,0-0.147-0.08-0.107-0.134c-0.066-0.026-0.12-0.08-0.12-0.16c-0.053,0-0.2-0.213-0.213-0.253c-0.027,0-0.04,0-0.054,0.013
	c-0.026-0.04-0.054-0.093-0.094-0.12c-0.013,0.014-0.013,0.04-0.013,0.067c-0.027-0.12-0.628-0.734-0.748-0.734
	c-0.133-0.174-0.36-0.28-0.547-0.36c-0.214-0.134-0.414-0.254-0.628-0.388c-0.173-0.04-0.267-0.173-0.4-0.24
	c-0.013,0.027-0.013,0.054-0.013,0.107c-0.04-0.04-0.067-0.067-0.107-0.107c-0.066,0-0.133-0.053-0.16-0.12
	c-0.013,0.04-0.013,0.094-0.013,0.134c-0.107-0.04-0.094-0.066-0.12-0.16c-0.027,0-0.054,0-0.067,0c0-0.026,0-0.054,0-0.066
	c-0.253-0.067-0.507-0.147-0.747-0.214c-0.107,0.014-0.508-0.106-0.628-0.146c-0.2,0-0.507-0.16-0.681-0.107
	c-0.106-0.106-0.347-0.053-0.48-0.053c0-0.2,0.374-0.348,0.508-0.428c0.12-0.146,0.32-0.227,0.453-0.36
	c0.214-0.106,0.428-0.254,0.548-0.48c0.066-0.08,0.16-0.174,0.24-0.24c0.374-0.707,0.681-1.882,0.414-2.67
	c0-0.333-0.054-0.681,0.307-0.827c0.921,0,1.882,0.574,2.643,1.041c0.614,0.414,1.269,0.881,1.909,1.255
	c2.056,1.481,4.085,3.03,6.287,4.298c0.146,0,0.587,0.254,0.694,0.36c0.213,0.107,0.427,0.2,0.667,0.308
	c0.187,0.093,0.387,0.173,0.587,0.28c0.228,0.026,0.562,0.187,0.774,0.293c0.4,0.067,0.814,0.147,1.215,0.228
	c0.214,0.053,0.428,0.12,0.654,0.187c0.36-0.026,0.721-0.08,1.067-0.187c0.374,0,0.534,0.187,0.762,0.467
	c0.04,0.054,0.08,0.12,0.133,0.174c0.4,0.467,0.814,0.921,1.215,1.401c0.294,0.146,0.387,0.561,0.654,0.694
	c0.066,0.146,0.146,0.334,0.294,0.4c0,0.2,0.307,0.534,0.413,0.694c0.681,1.107,1.455,2.216,2.043,3.391
	c0.026,0.106,0.053,0.213,0.08,0.334c0.146,0.24,0.28,0.48,0.387,0.733c-4.312,5.606-10.305,9.091-16.926,9.091
	C27.03,67.508,24.788,67.081,22.679,66.293"/>
<path fill="#6CBE99" d="M9.171,53.132c0.146-0.28,0.294-0.574,0.454-0.854c0.013-0.066,0.026-0.146,0.053-0.214
	c0.014,0,0.04,0,0.067,0c0.013-0.04,0.026-0.093,0.04-0.133c0.227-0.388,0.467-0.774,0.707-1.162c0.134-0.04,0.28-0.307,0.36-0.387
	c0.214-0.427,0.641-0.734,0.921-1.107c0.027-0.04,0.067-0.08,0.12-0.12c0.094,0,0.268-0.228,0.308-0.308c0.013,0,0.026,0,0.053,0
	c0-0.106,0.107-0.134,0.16-0.16c0.054-0.094,0.12-0.16,0.174-0.227c0.28-0.134,0.614-0.374,0.841-0.561
	c0.454-0.147,0.854-0.521,1.281-0.614c0.214-0.214,0.814-0.106,1.081-0.054c0.214,0.08,0.428,0.174,0.668,0.28
	c0.24,0.04,0.494,0.107,0.747,0.16c0.561,0.054,1.121,0.134,1.709,0.2c0.094-0.08,0.534-0.053,0.667-0.053
	c0.521,0.066,1.068,0.053,1.603,0.066c0.453,0.066,0.894,0.146,1.348,0.214c0.2,0.093,0.467,0.093,0.654,0.2
	c0.254,0.053,0.521,0.12,0.801,0.187c0.16,0.054,0.32,0.12,0.494,0.188c0.213,0.12,0.427,0.227,0.653,0.36c0,0.013,0,0.026,0,0.04
	c0.228,0.173,0.494,0.347,0.654,0.573c0.16,0.027,0.388,0.334,0.468,0.468c0.227,0.146,0.453,0.4,0.627,0.627
	c0.4,0.36,0.694,0.948,1.055,1.309c0.04,0.133,0.12,0.253,0.2,0.347c0.146,0.4,0.334,0.814,0.4,1.229c0.094,0,0.2,0.907,0.2,0.987
	c0,0.988,0,1.963,0,2.964c-0.026,0.16-0.054,0.333-0.066,0.507c-0.12,0.641-0.334,1.349-0.574,1.936
	c-0.106,0.16-0.146,0.334-0.2,0.508c-0.134,0.213-0.24,0.427-0.36,0.667c-0.027,0-0.04,0-0.054,0
	c-0.066,0.134-0.227,0.307-0.227,0.467c-0.027,0-0.04,0-0.054,0c-0.134,0.188-0.36,0.308-0.547,0.414
	c-0.308,0.106-0.574,0.32-0.854,0.48c0,0.12-0.534,0.308-0.628,0.48c-0.16,0.04-0.32,0.16-0.36,0.32
	c-0.066,0.027-0.133,0.054-0.187,0.08c0,0.014,0,0.027,0,0.054c-0.106,0-0.12,0.066-0.146,0.146c-0.014,0-0.027,0-0.04,0
	c0,0.014,0,0.027,0,0.04c-0.04,0-0.08,0.014-0.12,0.027c0,0.053-0.534,0.547-0.628,0.693c-0.133,0.134-0.4,0.468-0.561,0.534
	c-0.013,0.027-0.026,0.066-0.026,0.12c-0.027,0-0.054,0-0.067,0c-0.28,0.348-0.573,0.708-0.841,1.055
	C16.713,63.877,12.121,59.219,9.171,53.132"/>
<path fill="#45B384" d="M9.638,50.956c0.067-0.614,0.374-1.229,0.521-1.829c0.04-0.16,0.107-0.32,0.16-0.48
	c0.268-0.574,0.548-1.308,0.921-1.842c0.174-0.48,0.388-0.908,0.668-1.349c0.094,0,0.12-0.173,0.146-0.253
	c0.134,0,0.36-0.628,0.534-0.734c0.32-0.494,0.601-0.881,1.055-1.255c0.547-0.547,1.228-1.027,1.802-1.589
	c0.307-0.453,0.721-0.867,1.015-1.308c0.146-0.294,0.227-0.628,0.387-0.895c0.067-0.04,0.147-0.066,0.214-0.106
	c0.2,0,0.414,0,0.601,0.053c0.227,0.094,0.467,0.188,0.694,0.294c0.334,0.107,0.681,0.214,1.027,0.334
	c0.067,0.026,0.16,0.054,0.24,0.106c0.734,0.24,1.575,0.588,2.136,1.161c0.04,0.134,0.04,0.308,0.027,0.454
	c-0.2,0.2-0.828,0.106-1.082,0.106c-1.562,0.281-2.723,1.188-3.91,2.149c0,0-1.362,1.201-1.362,1.415c-0.026,0-0.04,0-0.053,0
	c-0.027,0.04-0.054,0.08-0.094,0.146c-0.12,0.174-0.227,0.348-0.347,0.521c-0.107,0.28-0.214,0.334-0.468,0.494
	c-0.654,0.601-1.508,0.921-2.216,1.455c0,0.04-0.133,0.106-0.146,0.106c-0.026,0.107-0.187,0.188-0.294,0.214
	c0,0.12-0.334,0.334-0.427,0.427c-0.107,0.16-0.308,0.308-0.374,0.468c-0.026,0-0.054,0-0.08,0c-0.36,0.48-0.801,0.947-1.067,1.508
	C9.758,50.742,9.731,50.902,9.638,50.956"/>
<path fill="#45B384" d="M39.151,49.581c-0.214-0.054-0.414-0.066-0.602-0.2c-0.093-0.014-0.173-0.026-0.267-0.026
	c-0.801-0.294-1.602-0.694-2.336-1.108c-0.014-0.04-0.026-0.066-0.04-0.106c-2.069-0.948-4.151-2.216-5.967-3.564
	c-0.387-0.293-0.761-0.574-1.147-0.867c-0.641-0.428-1.255-0.868-1.883-1.295c-0.227-0.146-0.467-0.28-0.681-0.4
	c-0.133-0.054-0.267-0.107-0.373-0.147c-0.521-0.026-1.108,0-1.535-0.32c-0.027-0.053-0.04-0.12-0.054-0.16
	c0.026-0.653-0.08-1.441,0.174-2.056c0.173-0.213,0.2-0.213,0.48-0.213c0.16,0.106,0.32,0.2,0.494,0.32
	c0,0.08,0.573,0.641,0.667,0.681c0,0.134,0.921,0.721,1.095,0.907c1.041,0.708,2.082,1.482,3.083,2.27
	c0.508,0.521,1.015,1.041,1.535,1.562c0.014,0,0.026,0,0.054,0.014c0,0.014,0,0.026,0,0.04c0.066,0.054,0.146,0.12,0.214,0.174
	c0,0.013,0,0.026,0,0.04c0.721,0.641,1.588,1.107,2.402,1.615c0.48,0.227,0.947,0.467,1.428,0.707
	c0.08,0.014,0.188,0.04,0.294,0.066c0.146,0,0.32-0.013,0.454,0.04c0.026-0.04,0.054-0.08,0.094-0.12
	c0.681-0.16,1.334-0.507,2.042-0.453c0.146,0.12,0.307,0.24,0.467,0.32c0.08,0.106,0.188,0.2,0.294,0.307
	c0.04,0.134,0.106,0.254,0.16,0.4c0.187,0.134,0.307,0.374,0.347,0.587c0.014,0,0.04,0,0.067,0c0,0.04,0,0.094,0,0.134
	c0.253,0.254,0.133,0.294-0.04,0.468C39.992,49.647,39.484,49.567,39.151,49.581"/>
<path fill="#FCD7B8" d="M36.388,46.658c-1.081-0.254-1.949-0.908-2.87-1.522c-0.453-0.32-0.881-0.641-1.308-0.935
	c-0.146-0.187-0.4-0.28-0.534-0.453c-0.24-0.147-0.547-0.574-0.814-0.641c-1.415-1.215-2.856-2.483-4.312-3.671
	c-0.32-0.228-0.627-0.454-0.921-0.668c-0.08-0.066-0.16-0.146-0.227-0.2c-0.48-0.32-0.948-0.641-1.415-0.947
	c-0.521-0.32-1.041-0.641-1.549-0.935c-0.867-0.521-1.734-1.041-2.603-1.562c-0.454-0.28-0.881-0.588-1.268-0.948
	c-0.054-0.08-0.12-0.16-0.174-0.227c-0.014,0-0.027,0-0.04,0c0-0.12-0.214-0.374-0.254-0.507c0-0.308,0.146-0.4,0.454-0.428
	c0.146-0.146,0.734-0.521,0.987-0.574c0.975-0.573,1.936-1.161,2.91-1.722c0.387-0.254,0.761-0.654,1.241-0.761
	c0.374,0,0.4,0.04,0.588,0.374c0.066,0.414,0.146,0.841,0.227,1.255c0.334,0.681,0.801,1.121,1.389,1.588
	c0.4,0.2,0.681,0.348,1.121,0.428c0.2-0.014,0.4-0.014,0.601-0.014c0.214-0.106,0.454-0.2,0.681-0.294
	c0.227-0.227,0.294-0.547,0.374-0.854c0-0.213,0-0.413,0-0.627c-0.067-0.254-0.147-0.521-0.2-0.761
	c-0.228-0.48-0.708-0.574-1.188-0.748c-0.214-0.106-0.4-0.253-0.4-0.521c0.066-0.187,0.187-0.347,0.334-0.493
	c0.24-0.094,0.521,0.04,0.734,0.173c0.146,0.014,0.293,0.04,0.427,0.067c0.026-0.027,0.066-0.054,0.12-0.08
	c0-0.308-0.374-0.668-0.547-0.881c0-0.134,0.08-0.388,0.227-0.388c0-0.134,0.254-0.32,0.334-0.4c0.173-0.36,0.227-0.814,0.36-1.201
	c-0.107-0.106-0.334,0-0.48,0c0,0.066-0.174,0.174-0.214,0.227c-0.014,0.134-0.014,0.28-0.014,0.414
	c-0.347,0.414-0.681,0.854-1.015,1.281c-0.293,0.388-0.587,0.774-0.934,1.108c-0.027,0.053-0.054,0.133-0.067,0.2
	c0,0.507,0.28,0.667,0.681,0.881c0.32,0.146,0.641,0.294,0.975,0.427c0.054,0.107,0.134,0.2,0.2,0.308
	c0.027,0.08,0.054,0.173,0.107,0.28c0,0.146,0,0.293,0,0.427c-0.28,0.841-1.095,0.908-1.829,0.548c-0.2-0.174-0.4-0.334-0.601-0.494
	c-0.146-0.24-0.294-0.48-0.428-0.708c-0.106-0.227-0.2-0.453-0.293-0.667c-0.067-0.294-0.147-0.574-0.214-0.868
	c-0.026-0.2-0.054-0.387-0.066-0.573c0-1.201,0.36-2.576,1.441-3.23c0.106-0.04,0.214-0.08,0.334-0.12
	c0.48,0,0.854,0.106,1.107,0.534c0.054,0.013,0.12,0.04,0.174,0.066c0.146-0.146,0.454-0.174,0.654-0.174
	c0,0.014,0,0.027,0.013,0.04c0-0.16,0.268-0.187,0.374-0.213c0.12-0.32,0.24-0.521,0.494-0.721c0.12-0.014,0.227-0.014,0.347-0.014
	c0.414,0.106,0.908,0.347,1.269,0.574c1.508,0.627,3.003,1.428,4.538,1.962c1.695,0.774,3.551,1.188,5.353,1.655
	c0.04,0.013,0.08,0.04,0.146,0.066c0.094,0.694,0.2,1.415,0.374,2.096c0.12,0.188,0.227,0.374,0.348,0.574
	c0.12,0.08,0.24,0.174,0.373,0.28c1.215,0.547,2.63,0.387,3.925,0.547c0.12,0.027,0.227,0.067,0.36,0.12
	c0.414,0.308,0.641,0.588,0.721,1.122c0,0.146,0,0.307,0,0.467c-0.12,0.627-0.094,1.468-0.975,1.361
	c-0.707-0.2-1.361-0.707-2.028-1.041c-0.12-0.04-0.228-0.066-0.348-0.106c-0.08-0.014-0.174-0.014-0.254-0.014
	c-0.827,0.134-1.094,0.935-1.214,1.655c0,0.334,0,0.681,0,1.027c-0.4,0.601-1.603,0.107-2.003-0.24
	c-0.053-0.066-0.106-0.133-0.146-0.187c-0.066-0.587-0.134-1.175-0.187-1.749c-0.04-0.28-0.12-0.801-0.374-0.961
	c-0.228,0-0.708,0.174-0.508,0.48c0.12,0.067,0.228,0.147,0.36,0.228c0.174,0.347,0.228,0.667,0.041,1.041
	c-0.201,0.174-0.428,0.32-0.668,0.454c-0.547,0.187-1.081,0.373-1.615,0.573c-0.146,0.094-0.294,0.188-0.427,0.294
	c-0.107,0.146-0.2,0.294-0.308,0.454c-0.013,0.213-0.013,0.427-0.013,0.654c0.2,0.521,0.627,1.014,1.107,1.281
	c0.308,0,0.628,0.053,0.548-0.348c-0.294-0.24-0.601-0.467-0.922-0.667c-0.026-0.04-0.053-0.08-0.066-0.134
	c0-0.213-0.014-0.387,0.107-0.574c0.106-0.133,0.2-0.253,0.32-0.373c0.333-0.174,0.681-0.24,1.041-0.294
	c0.307-0.066,0.587-0.2,0.907-0.2c0.308,0.24,0.601,0.587,0.921,0.827c0.134,0.054,0.254,0.12,0.4,0.174
	c0.4,0.094,0.774,0.147,1.055,0.468c0.04,0.146,0.094,0.293,0.147,0.427c0.04,0.534,0.133,1.067,0.04,1.602
	c-0.16,0.734-0.334,1.495-0.842,2.096c-0.24,0.214-0.467,0.374-0.773,0.468c-0.134,0-0.24,0-0.36,0.013
	c-0.134-0.026-0.24-0.053-0.36-0.093c-0.521-0.214-0.948-0.922-1.535-0.922c-0.16,0.134-0.174,0.228-0.174,0.454
	c0.134,0.4,0.641,0.574,0.987,0.774c0.641,0.561,0.214,1.255-0.187,1.829c-0.24,0.16-0.48,0.333-0.707,0.507
	c-0.214,0.066-0.414,0.16-0.628,0.24C37.028,46.551,36.708,46.591,36.388,46.658"/>
<path fill="#DADADA" d="M21.051,44.335c-0.174-0.066-0.347-0.134-0.508-0.187c0-0.014,0-0.027,0-0.04
	c-0.24,0-0.293-0.601-0.307-0.748c0.134-0.693,0.868-1.027,1.455-0.573c0.04,0.04,0.08,0.08,0.134,0.146
	c0.04,0.106,0.08,0.214,0.146,0.334c0,0.347-0.026,0.521-0.214,0.827C21.531,44.229,21.305,44.309,21.051,44.335"/>
<path fill="#45B384" d="M23.066,41.064c-0.548-0.213-0.841-0.547-1.188-1.027c-0.641-0.641-1.615-0.895-2.442-1.175
	c-0.36-0.106-0.721-0.2-1.081-0.307c-0.054-0.027-0.107-0.054-0.147-0.067c-0.08-0.12-0.16-0.213-0.227-0.32
	c-0.014-0.187-0.014-0.36-0.014-0.533c0.054-0.281,0.12-0.548,0.188-0.828c0-0.654-0.268-1.428-0.094-2.082
	c0.134-0.08,0.227-0.147,0.387-0.04c0.401,0.36,0.748,0.801,1.095,1.201c0.36,0.254,0.721,0.521,1.081,0.801
	c0.682,0.4,1.429,0.827,2.163,1.095c0.146,0.08,0.293,0.174,0.427,0.28c0.04,0.054,0.094,0.12,0.147,0.174
	c0.2,0.613-0.188,1.281-0.134,1.936c0.094,0.253,0.16,0.573,0.054,0.854C23.227,41.038,23.146,41.052,23.066,41.064"/>
<path fill="#45B384" d="M18.381,32.121c-0.507-0.146-0.601-0.307-0.601-0.813c0.04-0.174,0.08-0.334,0.146-0.494
	c0.16-0.308,0.32-0.601,0.494-0.895c0.094-0.294,0.188-0.574,0.294-0.867c0.094-0.4,0.187-0.788,0.294-1.188
	c0-0.214,0-0.414,0.013-0.627c-0.12-0.534-0.227-1.068-0.333-1.603c0-0.106,0-0.187,0-0.28c0.04-0.053,0.08-0.12,0.133-0.16
	c0.561-0.347,1.321-0.32,1.936-0.573c0.28-0.188,0.548-0.374,0.828-0.548c0.587-0.387,1.027-0.987,1.548-1.468
	c0.067-0.067,0.16-0.147,0.24-0.2c1.335-0.721,2.736-1.015,4.178-1.389c0.548-0.2,1.108-0.387,1.683-0.574
	c0.4-0.187,0.814-0.36,1.215-0.533c0.093-0.054,0.173-0.107,0.267-0.147c0.2-0.16,0.4-0.32,0.601-0.48
	c0.28-0.347,0.654-0.641,0.921-0.987c0.014-0.014,0.04-0.014,0.067-0.014c0-0.28,0.813-0.854,1.067-1.015
	c0.561-0.133,1.095,0.294,1.535,0.588c0.227,0.32,0.494,0.573,0.827,0.773c0.508,0.147,1.042,0.228,1.563,0.294
	c0.146,0.054,0.293,0.12,0.427,0.174c0.014,0.054,0.026,0.134,0.054,0.2c-0.027,0.134-0.094,0.28-0.2,0.334
	c-0.534,0-1.122,0.013-1.629-0.174c-0.106-0.094-0.2-0.174-0.294-0.24C35.601,19.2,35.533,19.2,35.48,19.2
	c-0.067,0.067-0.147,0.147-0.2,0.228c0,0.08,0,0.187,0,0.293c0.24,0.24,0.507,0.348,0.854,0.414c0.428,0,0.868,0,1.295,0
	c0.054,0.026,0.134,0.054,0.2,0.106c0.16,0.334,0.228,0.641,0.014,0.948c-0.106,0.014-0.187,0.04-0.28,0.066
	c-0.4,0-1.161-0.08-1.161,0.548c0.16,0.16,0.293,0.187,0.521,0.2c0.174-0.054,0.347-0.12,0.521-0.174c0.12,0,0.227,0,0.36,0
	c0.214,0.174,0.307,0.347,0.146,0.601c-0.427,0.494-1.161,0.48-1.762,0.574c-0.734,0.053-1.469,0.173-2.216,0.293
	c-1.735,0.481-3.483,1.108-5.099,1.883c-0.854,0.16-1.789,0-2.67,0.187c-0.508,0.174-1.041,0.428-1.429,0.828
	c-0.4,0.721-0.841,1.468-1.027,2.296c-0.107,0.173-0.2,0.36-0.308,0.547c-0.413,0.414-0.934,0.747-1.441,1.055
	c-0.707,0.307-1.348,0.747-1.976,1.188C19.396,31.654,18.929,32.028,18.381,32.121"/>
<path fill="#FFFFFF" d="M43.422,29.412c-1.161-0.04-2.309-0.054-3.403-0.4c-0.227-0.147-0.467-0.294-0.681-0.414
	c-0.28-0.348-0.734-0.588-0.988-0.961c-0.106,0-0.24-0.294-0.36-0.348c-0.253-0.293-0.507-0.561-0.747-0.841
	c-0.014,0-0.026,0-0.04,0c0-0.026,0-0.04,0-0.053c-0.026,0-0.04,0-0.054,0c-0.521-0.642-1.041-1.269-1.562-1.896
	c-0.12-0.16-0.227-0.308-0.334-0.454c0-0.521,0.12-0.4,0.534-0.548c0.734-0.013,1.495-0.04,2.229-0.013
	c0.347,0.307,0.681,0.681,1.001,1.027c1.548,1.522,3.017,3.19,4.578,4.699c0.04,0.053,0.08,0.12,0.147,0.187
	C43.623,29.385,43.516,29.398,43.422,29.412"/>
<path fill="#6CBE99" d="M18.515,24.633c-0.054-0.253-0.12-0.507-0.174-0.747c0.187-0.228,0.374-0.468,0.561-0.694
	c0.188-0.106,0.36-0.214,0.561-0.28c0.414-0.014,0.841-0.106,1.255-0.16c0.908-0.44,1.682-1.321,2.416-2.002c0.014,0,0.027,0,0.04,0
	c0-0.014,0-0.027,0-0.04c0.494-0.48,0.988-0.935,1.469-1.402c0.013,0,0.026,0,0.04,0c0-0.013,0-0.026,0-0.04
	c0.561-0.453,1.067-1.094,1.655-1.481c0.813-0.814,1.896-0.774,2.977-0.827c0.413-0.067,0.854-0.134,1.281-0.188
	c0.387-0.066,0.774-0.146,1.175-0.213c0.641-0.188,1.295-0.414,1.868-0.774c0.24-0.2,0.508-0.4,0.762-0.601
	c0-0.24,1.441-0.828,1.628-0.881c0.16,0,0.32,0,0.48,0c-0.08,0.106-0.174,0.213-0.24,0.333c-0.214,0.534-0.066,1.002,0.174,1.509
	c0.16,0.2,0.334,0.387,0.534,0.534c0.146,0.16,0.307,0.333,0.467,0.507c0.187,0.294,0.774,0.961,0.587,1.361
	c-0.04,0.014-0.08,0.027-0.133,0.054c-0.574-0.054-1.161-0.106-1.723-0.146c-0.307-0.12-0.521-0.374-0.721-0.628
	c-0.413-0.547-0.641-1.095-1.361-1.175c-0.334,0-0.654,0.014-0.975,0.027c-0.881,0.293-1.281,1.281-1.896,1.922
	c0,0.014,0,0.026,0,0.054c-0.026,0-0.04,0-0.053,0c-0.04,0.026-0.094,0.066-0.12,0.12c-0.774,0.387-1.562,0.774-2.336,1.188
	c-0.574,0.228-1.188,0.414-1.775,0.574c-1.229,0.254-2.496,0.534-3.604,1.161c-0.467,0.388-0.867,0.881-1.228,1.375
	c-0.067,0.026-0.107,0.066-0.134,0.146c-0.174,0.147-0.347,0.294-0.507,0.44c-0.561,0.32-1.202,0.574-1.789,0.828
	C19.315,24.526,18.915,24.58,18.515,24.633"/>
<path fill="#DADADA" d="M37.349,16.117c-0.28-0.107-0.533-0.28-0.587-0.574c-0.16-0.16,0.08-0.654,0.146-0.801
	c0.054,0,0.134-0.134,0.16-0.174c0.188-0.134,0.36-0.16,0.561-0.014c0.067,0.08,0.147,0.188,0.214,0.294
	c0.054,0.374,0.174,1.015-0.227,1.215C37.522,16.077,37.429,16.09,37.349,16.117"/>
<path d="M39.698,51.557c0.801,0,1.455,0.654,1.455,1.455s-0.654,1.455-1.455,1.455s-1.455-0.654-1.455-1.455
	C38.229,52.197,38.884,51.557,39.698,51.557"/>
<path d="M42.555,56.015c0.801,0,1.455,0.654,1.455,1.455s-0.654,1.455-1.455,1.455S41.1,58.271,41.1,57.47
	C41.086,56.656,41.74,56.015,42.555,56.015"/>
<path d="M37.843,31.147c0.654,0,1.175,0.521,1.175,1.174c0,0.654-0.521,1.175-1.175,1.175s-1.175-0.521-1.175-1.175
	C36.654,31.681,37.188,31.147,37.843,31.147"/>
<path fill="#FFFFFF" d="M37.843,31.854c0.267,0,0.48,0.214,0.48,0.48s-0.214,0.48-0.48,0.48s-0.48-0.214-0.48-0.48
	S37.576,31.854,37.843,31.854"/>
<path d="M72.175,58.592v9.957h2.643v-4.231h1.509v4.231h2.669v-9.957h-2.669v3.724h-1.509v-3.724H72.175z M80.157,62.649v3.777
	c0,1.535,1.241,2.296,3.003,2.296c1.709,0,3.057-0.667,3.057-2.362v-3.631c0-1.682-1.375-2.31-3.097-2.31
	C81.479,60.42,80.157,61.114,80.157,62.649z M82.626,62.396c0-0.44,0.268-0.507,0.561-0.507c0.294,0,0.561,0.093,0.561,0.533v4.312
	c0,0.44-0.267,0.508-0.561,0.508c-0.293,0-0.561-0.08-0.561-0.508V62.396z M92.73,62.93v-0.44c0-0.935-0.48-2.069-2.749-2.069
	c-1.442,0-2.79,0.801-2.79,2.122v0.308c0,1.335,1.615,2.216,2.442,2.723c0.561,0.334,0.881,0.748,0.881,1.095
	c0,0.307-0.173,0.561-0.507,0.561c-0.427,0-0.681-0.254-0.681-0.641v-0.561h-2.229v0.681c0,0.414,0.174,0.947,0.494,1.281
	c0.44,0.44,1.201,0.708,2.296,0.708c0.507,0,1.295-0.054,1.855-0.4c0.921-0.562,1.067-1.362,1.067-1.789v-0.294
	c0-0.48-0.32-1.308-1.147-1.868l-1.175-0.801c-0.681-0.468-1.067-0.682-1.067-1.215c0-0.2,0.133-0.468,0.561-0.468
	c0.507,0,0.533,0.44,0.533,0.654v0.387h2.216V62.93z M96.175,60.58h-2.47v9.317h2.47v-2.163h0.026
	c0.28,0.602,0.948,0.975,1.735,0.975c1.241,0,1.829-1.027,1.829-2.349v-3.991c0-1.095-0.508-1.963-1.762-1.963
	c-0.614,0-1.349,0.107-1.803,0.895l-0.026-0.026V60.58z M96.175,62.956c0-0.347,0.12-0.921,0.641-0.921c0.12,0,0.48,0.094,0.48,0.48
	v4.058c0,0.388-0.254,0.508-0.44,0.508c-0.32,0-0.681-0.12-0.681-1.068V62.956z M100.9,62.649v3.777
	c0,1.535,1.241,2.296,3.003,2.296c1.709,0,3.057-0.667,3.057-2.362v-3.631c0-1.682-1.375-2.31-3.097-2.31
	C102.222,60.42,100.9,61.114,100.9,62.649z M103.369,62.396c0-0.44,0.268-0.507,0.561-0.507c0.294,0,0.561,0.093,0.561,0.533v4.312
	c0,0.44-0.28,0.508-0.561,0.508c-0.293,0-0.561-0.08-0.561-0.508V62.396z M111.672,58.592v2.709h-0.026
	c-0.36-0.641-0.975-0.867-1.562-0.867h-0.374c-1.175,0-1.629,1.041-1.629,1.896v4.312c0,0.453,0.147,0.975,0.44,1.388
	c0.4,0.561,0.962,0.708,1.148,0.708h0.494c0.561,0,1.255-0.44,1.481-0.975h0.026v0.801h2.47v-9.958h-2.47V58.592z M111.672,65.786
	c0,0.587-0.026,1.295-0.641,1.295c-0.307,0-0.48-0.174-0.48-0.48v-4.111c0-0.254,0.254-0.468,0.507-0.468
	c0.441,0,0.614,0.44,0.614,1.028V65.786L111.672,65.786z M115.437,63.09h2.296v-0.721c0-0.174,0.12-0.48,0.614-0.48
	c0.44,0,0.587,0.24,0.587,0.587c0,0.694-0.48,0.975-1.175,1.229c-0.747,0.293-2.496,0.653-2.496,2.629
	c0.026,0.921,0.146,1.509,0.507,1.883c0.374,0.387,0.935,0.507,1.415,0.507c0.895,0,1.509-0.347,1.855-0.787h0.027v0.613h2.269
	v-5.793c0-0.507-0.12-1.041-0.413-1.455c-0.4-0.533-1.108-0.867-2.563-0.867c-1.936,0-2.923,0.975-2.923,1.922V63.09z
	 M118.947,66.721c0,0.333-0.174,0.653-0.588,0.653c-0.294,0-0.534-0.16-0.534-0.561v-1.161c0-0.533,0.682-0.841,1.122-1.095V66.721z
	 M126.222,63.09h2.296v-0.721c0-0.174,0.12-0.48,0.614-0.48c0.44,0,0.587,0.24,0.587,0.587c0,0.694-0.48,0.975-1.175,1.229
	c-0.747,0.293-2.496,0.653-2.496,2.629c0.027,0.921,0.147,1.509,0.508,1.883c0.373,0.387,0.935,0.507,1.415,0.507
	c0.894,0,1.508-0.347,1.855-0.787h0.026v0.613h2.269v-5.793c0-0.507-0.12-1.041-0.413-1.455c-0.4-0.533-1.108-0.867-2.563-0.867
	c-1.935,0-2.923,0.975-2.923,1.922V63.09z M129.732,66.721c0,0.333-0.174,0.653-0.588,0.653c-0.293,0-0.533-0.16-0.533-0.561v-1.161
	c0-0.533,0.681-0.841,1.121-1.095V66.721z M139.303,60.58h-2.47v9.317h2.47v-2.163h0.026c0.268,0.602,0.948,0.975,1.735,0.975
	c1.241,0,1.829-1.027,1.829-2.349v-3.991c0-1.095-0.508-1.963-1.762-1.963c-0.614,0-1.349,0.107-1.803,0.895l-0.026-0.026V60.58
	L139.303,60.58z M139.303,62.956c0-0.347,0.12-0.921,0.641-0.921c0.12,0,0.48,0.094,0.48,0.48v4.058c0,0.388-0.254,0.508-0.44,0.508
	c-0.32,0-0.681-0.12-0.681-1.068V62.956z M144.188,58.244v1.455h2.469v-1.455H144.188z M144.215,60.58v7.956h2.47V60.58H144.215z
	 M148.206,58.938v1.722h-0.614v1.562h0.614v5.086c0,0.427,0.146,0.841,0.414,1.041c0.36,0.32,0.921,0.374,1.241,0.374h1.468v-1.629
	h-0.347c-0.08,0-0.2-0.053-0.24-0.146c-0.054-0.094-0.054-0.214-0.054-0.36v-4.365h0.614V60.66h-0.614v-1.722H148.206z
	 M152.157,58.244v1.455h2.47v-1.455H152.157z M152.184,60.58v7.956h2.47V60.58H152.184z M159.766,58.938v1.722h-0.614v1.562h0.614
	v5.086c0,0.427,0.146,0.841,0.414,1.041c0.36,0.32,0.921,0.374,1.241,0.374h1.468v-1.629h-0.347c-0.08,0-0.2-0.053-0.24-0.146
	c-0.054-0.094-0.054-0.214-0.054-0.36v-4.365h0.614V60.66h-0.614v-1.722H159.766z M163.543,62.649v3.777
	c0,1.535,1.241,2.296,3.004,2.296c1.708,0,3.057-0.667,3.057-2.362v-3.631c0-1.682-1.375-2.31-3.097-2.31
	C164.864,60.42,163.543,61.114,163.543,62.649z M166.013,62.396c0-0.44,0.267-0.507,0.561-0.507s0.561,0.093,0.561,0.533v4.312
	c0,0.44-0.267,0.508-0.561,0.508s-0.561-0.08-0.561-0.508V62.396z M174.529,58.244v1.455h2.469v-1.455H174.529z M174.529,60.58
	v7.368c0,0.36-0.174,0.44-0.508,0.48c-0.12-0.026-0.2-0.026-0.2-0.026v1.481h1.269c0.641,0,1.174-0.16,1.481-0.507
	c0.374-0.414,0.427-1.068,0.427-1.509v-7.302h-2.469V60.58z M184.366,65.6h-2.469v1.027c0,0.414-0.147,0.614-0.562,0.614
	c-0.333,0-0.561-0.12-0.561-0.561v-1.803h3.591v-2.202c0-0.48-0.146-1.228-0.947-1.775c-0.494-0.32-1.175-0.48-2.109-0.48
	c-1.481,0-3.003,0.721-3.003,2.149v4.018c0,0.561,0.293,1.067,0.707,1.455c0.508,0.44,1.201,0.681,2.39,0.681
	c1.535,0,2.977-0.761,2.977-2.216V65.6H184.366z M181.897,63.41h-1.122v-1.028c0-0.36,0.268-0.507,0.682-0.507
	c0.36,0,0.44,0.414,0.44,0.641V63.41z M195.152,68.549v-6.567c0-0.827-0.762-1.562-1.829-1.562c-0.854,0-1.375,0.334-1.829,1.041
	h-0.026V60.58h-2.39v7.956h2.47v-5.46c0-0.521,0.2-0.747,0.587-0.747c0.414,0,0.534,0.36,0.534,0.653v5.54h2.483V68.549z
	 M196.446,63.09h2.296v-0.721c0-0.174,0.12-0.48,0.614-0.48c0.44,0,0.588,0.24,0.588,0.587c0,0.694-0.48,0.975-1.175,1.229
	c-0.748,0.293-2.496,0.653-2.496,2.629c0.026,0.921,0.146,1.509,0.507,1.883c0.374,0.387,0.935,0.507,1.415,0.507
	c0.895,0,1.509-0.347,1.855-0.787h0.026v0.613h2.27v-5.793c0-0.507-0.12-1.041-0.414-1.455c-0.4-0.533-1.107-0.867-2.563-0.867
	c-1.936,0-2.924,0.975-2.924,1.922V63.09z M199.957,66.721c0,0.333-0.173,0.653-0.587,0.653c-0.294,0-0.534-0.16-0.534-0.561v-1.161
	c0-0.533,0.681-0.841,1.121-1.095V66.721z M208.848,62.93v-0.44c0-0.935-0.48-2.069-2.75-2.069c-1.441,0-2.79,0.801-2.79,2.122
	v0.308c0,1.335,1.615,2.216,2.442,2.723c0.562,0.334,0.882,0.748,0.882,1.095c0,0.307-0.174,0.561-0.508,0.561
	c-0.427,0-0.681-0.254-0.681-0.641v-0.561h-2.229v0.681c0,0.414,0.174,0.947,0.494,1.281c0.44,0.44,1.215,0.708,2.296,0.708
	c0.508,0,1.295-0.054,1.855-0.4c0.921-0.562,1.068-1.362,1.068-1.789v-0.294c0-0.48-0.32-1.308-1.148-1.868l-1.175-0.801
	c-0.681-0.468-1.067-0.682-1.067-1.215c0-0.2,0.133-0.468,0.561-0.468c0.507,0,0.534,0.44,0.534,0.654v0.387h2.216V62.93z
	 M207.085,59.926l1.202-1.682h-1.442l-0.707,0.948l-0.641-0.948h-1.481l1.041,1.682H207.085z M215.896,65.6h-2.47v1.027
	c0,0.414-0.146,0.614-0.561,0.614c-0.334,0-0.561-0.12-0.561-0.561v-1.803h3.591v-2.202c0-0.48-0.147-1.228-0.948-1.775
	c-0.494-0.32-1.175-0.48-2.109-0.48c-1.481,0-3.003,0.721-3.003,2.149v4.018c0,0.561,0.294,1.067,0.708,1.455
	c0.507,0.44,1.201,0.681,2.389,0.681c1.535,0,2.977-0.761,2.977-2.216V65.6H215.896z M213.426,63.41h-1.121v-1.028
	c0-0.36,0.267-0.507,0.681-0.507c0.36,0,0.44,0.414,0.44,0.641V63.41z M245.088,60.58v1.682h2.816l-2.896,4.646v1.629h5.673v-1.709
	h-3.003l3.003-4.646V60.58H245.088z M249.133,59.926l1.201-1.682h-1.441l-0.708,0.948l-0.641-0.948h-1.481l1.041,1.682H249.133z
	 M251.749,58.244v1.455h2.469v-1.455H251.749z M251.775,60.58v7.956h2.47V60.58H251.775z M255.086,60.58l1.655,7.956h2.883
	l1.682-7.956l-2.456-0.026l-0.613,5.126h-0.027l-0.587-5.1H255.086L255.086,60.58z M261.934,62.649v3.777
	c0,1.535,1.241,2.296,3.003,2.296c1.709,0,3.057-0.667,3.057-2.362v-3.631c0-1.682-1.375-2.31-3.097-2.31
	C263.255,60.42,261.934,61.114,261.934,62.649z M264.402,62.396c0-0.44,0.268-0.507,0.561-0.507c0.294,0,0.562,0.093,0.562,0.533
	v4.312c0,0.44-0.268,0.508-0.562,0.508c-0.293,0-0.561-0.08-0.561-0.508V62.396z M269.115,58.592v9.957h2.469v-0.801h0.027
	c0.333,0.668,1.067,0.975,1.762,0.975c0.895,0,1.802-0.681,1.802-2.35v-3.964c0-1.375-0.707-1.989-1.802-1.989
	c-0.708,0-1.349,0.16-1.762,0.868h-0.027v-2.71h-2.469V58.592z M271.584,62.956c0-0.467,0.174-0.921,0.614-0.921
	c0.24,0,0.507,0.106,0.507,0.48v4.031c0,0.44-0.253,0.534-0.507,0.534c-0.534,0-0.614-0.561-0.614-0.921V62.956z M275.829,60.58
	l1.602,7.182c0.026,0.146,0.026,0.28,0.026,0.4c0,0.214-0.146,0.28-0.387,0.28h-0.561v1.535h1.455c0.641,0,1.321-0.094,1.708-0.48
	c0.494-0.414,0.681-1.148,0.814-1.749l1.562-7.168h-2.429l-0.614,5.606h-0.026l-0.614-5.606H275.829L275.829,60.58z M282.877,58.938
	v1.722h-0.614v1.562h0.614v5.086c0,0.427,0.146,0.841,0.414,1.041c0.36,0.32,0.921,0.374,1.241,0.374H286v-1.629h-0.347
	c-0.08,0-0.2-0.053-0.24-0.146c-0.054-0.094-0.054-0.214-0.054-0.36v-4.365h0.614V60.66h-0.614v-1.722H282.877z M286.828,58.244
	v1.455h2.469v-1.455H286.828z M286.854,60.58v7.956h2.47V60.58H286.854z"/>
<path d="M292.768,65.772c0.828,0,1.495,0.668,1.495,1.495c0,0.828-0.681,1.495-1.495,1.495c-0.827,0-1.495-0.667-1.495-1.495
	C291.272,66.44,291.94,65.772,292.768,65.772"/>
<path d="M297.026,65.772c0.827,0,1.494,0.668,1.494,1.495c0,0.828-0.681,1.495-1.494,1.495c-0.828,0-1.495-0.667-1.495-1.495
	C295.531,66.44,296.198,65.772,297.026,65.772"/>
<path d="M301.284,65.772c0.827,0,1.495,0.668,1.495,1.495c0,0.828-0.681,1.495-1.495,1.495c-0.828,0-1.495-0.667-1.495-1.495
	C299.789,66.44,300.456,65.772,301.284,65.772"/>
</svg>
